<svg width="141" height="161" viewBox="0 0 141 161" fill="none" xmlns="http://www.w3.org/2000/svg">
<path d="M91.4077 71.1448L99.6896 79.4268C99.9528 79.6905 100.101 80.0479 100.101 80.4204C100.101 80.793 99.9528 81.1504 99.6896 81.4141L91.4077 89.6961C91.2241 89.8791 90.9753 89.9817 90.7161 89.9815C90.4569 89.9813 90.2083 89.8782 90.025 89.6949C89.8417 89.5116 89.7386 89.2631 89.7384 89.0038C89.7382 88.7446 89.8409 88.4959 90.0239 88.3122L96.9373 81.399H61.079C60.8195 81.399 60.5706 81.2959 60.3871 81.1124C60.2036 80.9289 60.1005 80.68 60.1005 80.4204C60.1005 80.1609 60.2036 79.912 60.3871 79.7285C60.5706 79.545 60.8195 79.4419 61.079 79.4419H96.9373L90.0239 72.5286C89.8409 72.345 89.7382 72.0963 89.7384 71.8371C89.7386 71.5778 89.8417 71.3293 90.025 71.146C90.2083 70.9627 90.4569 70.8596 90.7161 70.8594C90.9753 70.8592 91.2241 70.9618 91.4077 71.1448Z" fill="black"/>
<path d="M65.2782 18.4209L69.3902 7.2209H71.1342L75.2302 18.4209H73.5342L70.2542 9.1409L66.9422 18.4209H65.2782ZM67.1342 15.6529L67.5822 14.3729H72.8462L73.2942 15.6529H67.1342Z" fill="black"/>
<path d="M78.2384 18.9851L80.5671 8.02989L82.1321 8.36255L80.0663 18.0814L85.0744 19.1459L84.8116 20.3823L78.2384 18.9851Z" fill="black"/>
<path d="M89.0065 21.9172L93.5619 11.6855L95.0236 12.3363L90.9823 21.4133L95.6596 23.4958L95.1455 24.6505L89.0065 21.9172Z" fill="black"/>
<path d="M106.47 33.0949L114.793 25.6006L117.352 28.4424C117.944 29.1003 118.322 29.7433 118.485 30.3712C118.657 30.9919 118.645 31.5766 118.45 32.1253C118.27 32.6748 117.947 33.1601 117.479 33.5812C117.019 33.9952 116.506 34.2704 115.94 34.4069C115.389 34.5442 114.806 34.5023 114.191 34.2812C113.583 34.053 112.976 33.602 112.37 32.9283L110.881 31.2755L107.54 34.2839L106.47 33.0949ZM111.868 30.3869L113.314 31.9921C113.87 32.6104 114.401 32.929 114.906 32.9479C115.426 32.9676 115.916 32.7705 116.376 32.3565C116.852 31.9283 117.099 31.4616 117.118 30.9566C117.144 30.4595 116.879 29.9017 116.322 29.2835L114.877 27.6783L111.868 30.3869Z" fill="black"/>
<path d="M113.376 41.3669L123.075 35.7669L124.971 39.0509C125.414 39.8176 125.647 40.5205 125.671 41.1594C125.695 41.7983 125.557 42.3586 125.256 42.8402C124.97 43.3257 124.554 43.7258 124.009 44.0404C123.492 44.3391 122.942 44.4964 122.36 44.5122C121.787 44.5227 121.223 44.3558 120.667 44.0117C120.126 43.6714 119.631 43.1133 119.183 42.3373L118.111 40.4806L114.176 42.7526L113.376 41.3669ZM116.312 46.4522L119.421 41.8858L120.301 43.41L117.248 48.0734L116.312 46.4522ZM119.164 39.8726L120.204 41.6739C120.599 42.3575 121.056 42.7649 121.575 42.8963C122.103 43.0222 122.631 42.9332 123.157 42.6292C123.693 42.3199 124.027 41.9175 124.16 41.4221C124.293 40.9267 124.154 40.3234 123.743 39.6121L122.711 37.8246L119.164 39.8726Z" fill="black"/>
<path d="M119.447 54.6262C119.114 53.6016 119.048 52.6246 119.251 51.6951C119.464 50.7624 119.909 49.9393 120.585 49.226C121.276 48.5195 122.168 47.9882 123.264 47.6322C124.35 47.2795 125.374 47.1878 126.337 47.357C127.314 47.5331 128.163 47.9359 128.883 48.5654C129.604 49.1949 130.131 50.022 130.464 51.0466C130.803 52.0915 130.866 53.0803 130.654 54.0131C130.444 54.956 129.993 55.7756 129.299 56.472C128.619 57.1752 127.736 57.7031 126.651 58.0558C125.555 58.4118 124.521 58.5068 123.547 58.3409C122.587 58.1818 121.745 57.7825 121.021 57.1428C120.311 56.51 119.786 55.6711 119.447 54.6262ZM120.806 54.2014C121.043 54.9318 121.418 55.5166 121.931 55.9556C122.447 56.4048 123.062 56.6759 123.777 56.769C124.494 56.8723 125.284 56.7839 126.147 56.5037C127.009 56.2235 127.7 55.8307 128.22 55.3253C128.743 54.8301 129.076 54.2507 129.22 53.5873C129.377 52.9307 129.336 52.2372 129.099 51.5068C128.862 50.7764 128.485 50.1866 127.969 49.7374C127.466 49.2951 126.856 49.0223 126.138 48.919C125.421 48.8157 124.631 48.9042 123.768 49.1844C122.906 49.4645 122.215 49.8573 121.695 50.3627C121.175 50.8681 120.837 51.4491 120.68 52.1057C120.527 52.7724 120.568 53.471 120.806 54.2014Z" fill="black"/>
<path d="M121.476 61.7123L132.614 60.5416L132.977 63.9945C133.113 65.2887 132.998 66.3841 132.631 67.2807C132.264 68.1773 131.682 68.8712 130.887 69.3624C130.103 69.8631 129.138 70.1737 127.992 70.2941C126.847 70.4145 125.838 70.3113 124.967 69.9846C124.098 69.6684 123.39 69.11 122.845 68.3093C122.31 67.5075 121.975 66.4595 121.839 65.1652L121.476 61.7123ZM122.979 63.163L123.168 64.9611C123.277 65.9901 123.532 66.7891 123.935 67.3581C124.338 67.9271 124.866 68.306 125.519 68.4948C126.183 68.6931 126.95 68.7466 127.82 68.6551C128.701 68.5626 129.445 68.3503 130.054 68.0182C130.663 67.6967 131.106 67.2157 131.382 66.5754C131.658 65.935 131.742 65.1004 131.634 64.0714L131.445 62.2733L122.979 63.163Z" fill="black"/>
<path d="M121.55 76.5038C121.633 75.7188 121.861 75.0242 122.236 74.42C122.621 73.817 123.152 73.3579 123.828 73.0429C124.515 72.7397 125.356 72.6404 126.353 72.7452L133.323 73.4778L133.156 75.069L126.17 74.3348C125.502 74.2646 124.939 74.318 124.48 74.495C124.033 74.6732 123.682 74.9474 123.429 75.3176C123.185 75.6995 123.035 76.1557 122.979 76.6861C122.922 77.2271 122.974 77.7045 123.134 78.1182C123.305 78.533 123.592 78.8688 123.994 79.1255C124.405 79.394 124.945 79.5634 125.613 79.6336L132.599 80.3678L132.432 81.9591L125.462 81.2265C124.465 81.1217 123.663 80.8444 123.056 80.3945C122.459 79.9457 122.036 79.381 121.786 78.7004C121.546 78.021 121.468 77.2888 121.55 76.5038Z" fill="black"/>
<path d="M119.226 86.8738C119.565 85.8289 120.087 85.0002 120.79 84.3877C121.504 83.7785 122.34 83.3994 123.296 83.2505C124.26 83.115 125.29 83.2252 126.385 83.5812C127.471 83.9339 128.364 84.4483 129.064 85.1243C129.76 85.8106 130.213 86.6083 130.423 87.5174C130.642 88.4299 130.582 89.4086 130.243 90.4535C129.84 91.6911 129.213 92.6033 128.361 93.1899C127.509 93.7766 126.507 93.995 125.355 93.8452L125.894 92.1866C126.576 92.2286 127.182 92.0722 127.712 91.7174C128.239 91.3727 128.633 90.7996 128.893 89.9982C129.124 89.2881 129.159 88.6098 128.999 87.9634C128.836 87.3271 128.491 86.7664 127.964 86.2813C127.438 85.7961 126.743 85.4135 125.881 85.1333C125.019 84.8532 124.227 84.7529 123.506 84.8326C122.795 84.9156 122.186 85.1664 121.68 85.5852C121.181 86.0174 120.816 86.5885 120.585 87.2986C120.324 88.1001 120.296 88.7918 120.499 89.3738C120.71 89.9693 121.099 90.4436 121.669 90.7969L121.125 92.4707C120.136 91.925 119.469 91.1644 119.124 90.1888C118.79 89.2164 118.823 88.1115 119.226 86.8738Z" fill="black"/>
<path d="M115.383 95.9857L123.946 100.93L125.602 98.0614L126.739 98.7174L122.619 105.853L121.482 105.197L123.146 102.315L114.583 97.3713L115.383 95.9857Z" fill="black"/>
<path d="M108.423 105.28C108.965 104.677 109.551 104.243 110.179 103.976C110.815 103.716 111.445 103.637 112.07 103.741C112.694 103.844 113.272 104.135 113.803 104.613L112.679 105.861C112.378 105.59 112.036 105.412 111.654 105.326C111.28 105.247 110.9 105.271 110.514 105.397C110.128 105.538 109.764 105.799 109.422 106.179C109.115 106.52 108.91 106.859 108.807 107.197C108.704 107.535 108.69 107.853 108.766 108.151C108.843 108.464 109.008 108.735 109.262 108.963C109.555 109.227 109.858 109.378 110.169 109.414C110.481 109.451 110.799 109.408 111.125 109.285C111.459 109.169 111.806 109.007 112.165 108.8C112.524 108.592 112.909 108.372 113.32 108.139C114.127 107.689 114.843 107.451 115.469 107.426C116.095 107.416 116.682 107.657 117.229 108.149C117.697 108.57 118.005 109.041 118.153 109.562C118.302 110.098 118.289 110.654 118.115 111.23C117.95 111.812 117.62 112.377 117.128 112.924C116.643 113.463 116.122 113.842 115.567 114.059C115.005 114.285 114.446 114.356 113.89 114.272C113.335 114.188 112.819 113.939 112.345 113.526L113.479 112.266C113.693 112.458 113.954 112.592 114.26 112.667C114.566 112.741 114.882 112.725 115.209 112.617C115.543 112.516 115.857 112.303 116.149 111.978C116.4 111.716 116.574 111.435 116.672 111.135C116.769 110.836 116.784 110.54 116.716 110.249C116.641 109.966 116.476 109.711 116.223 109.482C115.969 109.254 115.713 109.124 115.454 109.092C115.204 109.067 114.93 109.108 114.634 109.214C114.337 109.32 114.02 109.465 113.682 109.649C113.345 109.848 112.971 110.064 112.561 110.297C112.062 110.58 111.567 110.795 111.076 110.941C110.593 111.095 110.115 111.124 109.642 111.028C109.169 110.947 108.695 110.692 108.22 110.264C107.808 109.893 107.519 109.44 107.355 108.905C107.191 108.369 107.184 107.788 107.332 107.161C107.488 106.541 107.852 105.914 108.423 105.28Z" fill="black"/>
<path d="M95.0379 120.651L95.5846 121.879L89.6794 124.508L89.1328 123.28L95.0379 120.651Z" fill="black"/>
<path d="M74.9228 122.421L70.8108 133.621H69.0668L64.9708 122.421H66.6668L69.9468 131.701L73.2588 122.421H74.9228ZM73.0668 125.189L72.6188 126.469H67.3548L66.9068 125.189H73.0668Z" fill="black"/>
<path d="M62.1482 121.886L59.8196 132.841L58.2546 132.508L60.3204 122.79L55.3123 121.725L55.5751 120.489L62.1482 121.886Z" fill="black"/>
<path d="M51.6278 119.118L47.0723 129.349L45.6107 128.698L49.652 119.621L44.9747 117.539L45.4888 116.384L51.6278 119.118Z" fill="black"/>
<path d="M33.4479 107.432L25.1247 114.926L22.5659 112.085C21.9735 111.427 21.5956 110.784 21.4321 110.156C21.2607 109.535 21.2725 108.95 21.4674 108.402C21.6472 107.852 21.971 107.367 22.4387 106.946C22.8984 106.532 23.4114 106.257 23.9774 106.12C24.5284 105.983 25.1116 106.025 25.7269 106.246C26.3342 106.474 26.9413 106.925 27.5479 107.599L29.0361 109.252L32.3773 106.243L33.4479 107.432ZM28.0492 110.14L26.6039 108.535C26.0472 107.917 25.5163 107.598 25.0112 107.579C24.4911 107.559 24.0012 107.757 23.5414 108.171C23.0658 108.599 22.8185 109.065 22.7996 109.57C22.7736 110.068 23.0389 110.625 23.5956 111.244L25.0409 112.849L28.0492 110.14Z" fill="black"/>
<path d="M26.7165 99.2765L17.017 104.876L15.121 101.592C14.6783 100.826 14.445 100.123 14.421 99.484C14.397 98.8451 14.5354 98.2848 14.8362 97.8032C15.1225 97.3177 15.5381 96.9176 16.0831 96.6029C16.6004 96.3043 17.1501 96.147 17.7322 96.1312C18.305 96.1207 18.8694 96.2876 19.4253 96.6317C19.9666 96.972 20.4613 97.5301 20.9093 98.3061L21.9813 100.163L25.9165 97.8908L26.7165 99.2765ZM23.7805 94.1912L20.6712 98.7576L19.7912 97.2334L22.8445 92.57L23.7805 94.1912ZM20.9282 100.771L19.8882 98.9695C19.4935 98.2859 19.0366 97.8784 18.5174 97.7471C17.9889 97.6212 17.4614 97.7102 16.9349 98.0142C16.3991 98.3235 16.0648 98.7259 15.9321 99.2213C15.7993 99.7167 15.9383 100.32 16.3489 101.031L17.3809 102.819L20.9282 100.771Z" fill="black"/>
<path d="M20.4669 85.3308C20.7999 86.3554 20.865 87.3324 20.6623 88.2619C20.4494 89.1946 20.0046 90.0177 19.328 90.731C18.6378 91.4375 17.745 91.9688 16.6494 92.3248C15.5639 92.6775 14.5394 92.7692 13.576 92.6C12.5991 92.4239 11.7504 92.0211 11.0299 91.3916C10.3095 90.7621 9.78281 89.935 9.44989 88.9104C9.11038 87.8655 9.04705 86.8767 9.2599 85.9439C9.46945 85.001 9.92093 84.1814 10.6144 83.485C11.2943 82.7818 12.1771 82.2539 13.2625 81.9012C14.3581 81.5452 15.3928 81.4502 16.3663 81.6161C17.3265 81.7752 18.1685 82.1746 18.8922 82.8142C19.6025 83.447 20.1274 84.2859 20.4669 85.3308ZM19.1077 85.7556C18.8704 85.0252 18.4953 84.4405 17.9826 84.0014C17.4665 83.5522 16.8513 83.2811 16.1368 83.188C15.4191 83.0847 14.6291 83.1731 13.7668 83.4533C12.9046 83.7335 12.2134 84.1263 11.6935 84.6317C11.1703 85.127 10.837 85.7063 10.6936 86.3697C10.5369 87.0263 10.5771 87.7198 10.8145 88.4502C11.0518 89.1806 11.4285 89.7704 11.9445 90.2196C12.4472 90.6619 13.0573 90.9347 13.775 91.038C14.4927 91.1413 15.2827 91.0528 16.145 90.7727C17.0073 90.4925 17.6984 90.0997 18.2184 89.5943C18.7383 89.0889 19.0767 88.5079 19.2335 87.8513C19.3869 87.1846 19.345 86.486 19.1077 85.7556Z" fill="black"/>
<path d="M18.7451 79.3181L7.6065 80.4888L7.24358 77.0358C7.10755 75.7416 7.22302 74.6462 7.58998 73.7496C7.95693 72.853 8.53825 72.1591 9.33393 71.6679C10.1179 71.1672 11.0827 70.8566 12.2284 70.7362C13.3741 70.6158 14.3824 70.719 15.2533 71.0457C16.1231 71.3619 16.8307 71.9203 17.3761 72.721C17.9108 73.5229 18.2462 74.5709 18.3822 75.8651L18.7451 79.3181ZM17.2413 77.8673L17.0523 76.0692C16.9441 75.0402 16.6885 74.2412 16.2855 73.6722C15.8825 73.1032 15.3547 72.7243 14.702 72.5355C14.0377 72.3372 13.2705 72.2838 12.4007 72.3752C11.5202 72.4677 10.7756 72.6801 10.167 73.0122C9.55728 73.3337 9.11445 73.8146 8.83854 74.4549C8.56263 75.0953 8.47875 75.93 8.5869 76.959L8.77589 78.757L17.2413 77.8673Z" fill="black"/>
<path d="M18.594 64.8773C18.5115 65.6623 18.283 66.3569 17.9084 66.9611C17.5233 67.5641 16.9924 68.0231 16.3158 68.3381C15.6296 68.6414 14.788 68.7406 13.7908 68.6358L6.82121 67.9033L6.98846 66.3121L13.974 67.0463C14.6423 67.1165 15.2056 67.0631 15.664 66.886C16.1117 66.7079 16.4623 66.4337 16.7157 66.0635C16.9597 65.6815 17.1095 65.2254 17.1652 64.695C17.2221 64.1539 17.1704 63.6766 17.0101 63.2629C16.8392 62.8481 16.5527 62.5123 16.1507 62.2555C15.7391 61.9871 15.1992 61.8177 14.5309 61.7475L7.54538 61.0132L7.71263 59.422L14.6822 60.1545C15.6794 60.2594 16.4815 60.5367 17.0884 60.9866C17.6848 61.4354 18.1081 62.0001 18.3583 62.6806C18.598 63.3601 18.6765 64.0923 18.594 64.8773Z" fill="black"/>
<path d="M20.9754 53.968C20.6359 55.0129 20.1143 55.8416 19.4106 56.4541C18.6967 57.0633 17.8613 57.4424 16.9045 57.5913C15.9408 57.7268 14.9111 57.6166 13.8155 57.2606C12.73 56.9079 11.8373 56.3935 11.1373 55.7175C10.4406 55.0312 9.98755 54.2335 9.77826 53.3244C9.55882 52.4119 9.61885 51.4332 9.95836 50.3883C10.3605 49.1507 10.9877 48.2385 11.8401 47.6519C12.6924 47.0652 13.6943 46.8468 14.8457 46.9966L14.3067 48.6552C13.625 48.6132 13.0191 48.7696 12.4888 49.1244C11.9618 49.4691 11.5681 50.0422 11.3077 50.8436C11.077 51.5537 11.0417 52.232 11.2017 52.8784C11.3651 53.5147 11.7101 54.0754 12.2366 54.5605C12.7631 55.0456 13.4575 55.4283 14.3198 55.7085C15.1821 55.9886 15.9739 56.0889 16.6951 56.0092C17.4062 55.9262 18.0149 55.6754 18.5211 55.2566C19.0204 54.8244 19.3854 54.2533 19.6162 53.5431C19.8766 52.7417 19.905 52.05 19.7016 51.468C19.4913 50.8725 19.1015 50.3982 18.5321 50.0449L19.076 48.3711C20.0651 48.9168 20.732 49.6774 21.0767 50.653C21.4113 51.6254 21.3775 52.7303 20.9754 53.968Z" fill="black"/>
<path d="M24.7413 44.9784L16.178 40.0344L14.522 42.9026L13.3858 42.2466L17.5058 35.1106L18.642 35.7666L16.978 38.6487L25.5413 43.5927L24.7413 44.9784Z" fill="black"/>
<path d="M32.271 35.0046C31.7285 35.6071 31.1433 36.0418 30.5153 36.3089C29.8794 36.5688 29.2491 36.6471 28.6243 36.5439C27.9996 36.4407 27.4217 36.15 26.8906 35.6718L28.0147 34.4233C28.3159 34.6945 28.6576 34.873 29.0398 34.9587C29.414 35.0373 29.7941 35.0136 30.1803 34.8876C30.5656 34.7466 30.9296 34.4858 31.2722 34.1053C31.5791 33.7645 31.7841 33.4252 31.8873 33.0874C31.9904 32.7497 32.004 32.4318 31.9279 32.1337C31.8511 31.8205 31.6858 31.5497 31.4322 31.3213C31.1389 31.0572 30.8365 30.9069 30.5249 30.8703C30.2133 30.8338 29.8946 30.8769 29.5687 30.9997C29.2349 31.1154 28.8883 31.2771 28.5291 31.4847C28.1699 31.6924 27.785 31.9127 27.3742 32.1457C26.567 32.5959 25.8506 32.8336 25.225 32.8588C24.5987 32.869 24.012 32.6278 23.4651 32.1353C22.9974 31.7142 22.6895 31.2432 22.5413 30.7223C22.3924 30.1863 22.4048 29.6305 22.5786 29.0549C22.7444 28.4722 23.0736 27.9074 23.566 27.3604C24.0514 26.8214 24.5716 26.4429 25.1266 26.225C25.6888 25.9992 26.2478 25.9284 26.8035 26.0125C27.3593 26.0967 27.8746 26.3454 28.3494 26.7585L27.2146 28.0189C27.0006 27.8262 26.7405 27.6925 26.4345 27.618C26.1285 27.5434 25.8121 27.5599 25.4855 27.6677C25.1509 27.7683 24.8372 27.9811 24.5446 28.3061C24.294 28.5685 24.1199 28.8495 24.0223 29.1492C23.9247 29.4489 23.91 29.7442 23.9781 30.0352C24.0534 30.3183 24.2178 30.574 24.4715 30.8024C24.7252 31.0308 24.9812 31.1609 25.2397 31.1926C25.4902 31.2173 25.7638 31.1765 26.0603 31.0703C26.3569 30.9641 26.674 30.8191 27.0118 30.6353C27.3488 30.4363 27.7227 30.2204 28.1334 29.9874C28.6322 29.7044 29.127 29.4897 29.6178 29.3431C30.1007 29.1894 30.5788 29.1606 31.0521 29.2566C31.5246 29.3376 31.9987 29.5922 32.4743 30.0204C32.8865 30.3916 33.1746 30.8448 33.3386 31.38C33.5026 31.9152 33.5104 32.4963 33.362 33.1234C33.2056 33.7434 32.842 34.3705 32.271 35.0046Z" fill="black"/>
<path d="M44.5363 20.4596L43.9896 19.2318L49.8948 16.6027L50.4414 17.8305L44.5363 20.4596Z" fill="black"/>
</svg>
