<svg width="353" height="372" viewBox="0 0 353 372" fill="none" xmlns="http://www.w3.org/2000/svg">
<g clip-path="url(#clip0_1_2548)">
<g clip-path="url(#clip1_1_2548)">
<path fill-rule="evenodd" clip-rule="evenodd" d="M314.473 74.789C306.148 63.8128 289.988 64.3713 276.212 64.3713C256.207 64.3713 239.989 48.1537 239.989 28.1481C239.989 22.666 237.435 17.0687 232.249 15.296C214.636 9.27753 195.747 6.01172 176.095 6.01172C80.2357 6.01172 2.52597 83.7215 2.52597 179.581C2.52597 275.441 80.2357 353.151 176.095 353.151C271.955 353.151 349.665 275.441 349.665 179.581C349.665 140.215 336.559 103.909 314.473 74.789Z" fill="white"/>
<mask id="mask0_1_2548" style="mask-type:luminance" maskUnits="userSpaceOnUse" x="2" y="6" width="348" height="348">
<path fill-rule="evenodd" clip-rule="evenodd" d="M314.473 74.789C306.148 63.8128 289.988 64.3713 276.212 64.3713C256.207 64.3713 239.989 48.1537 239.989 28.1481C239.989 22.666 237.435 17.0687 232.249 15.296C214.636 9.27753 195.747 6.01172 176.095 6.01172C80.2357 6.01172 2.52597 83.7215 2.52597 179.581C2.52597 275.441 80.2357 353.151 176.095 353.151C271.955 353.151 349.665 275.441 349.665 179.581C349.665 140.215 336.559 103.909 314.473 74.789Z" fill="white"/>
</mask>
<g mask="url(#mask0_1_2548)">
<path d="M276.212 63.3652C256.763 63.3652 240.995 47.5981 240.995 28.1482H238.983C238.983 48.7094 255.651 65.3776 276.212 65.3776V63.3652ZM176.095 7.01802C195.635 7.01802 214.414 10.2651 231.923 16.2483L232.573 14.344C214.857 8.29016 195.859 5.00562 176.095 5.00562V7.01802ZM3.53218 179.581C3.53218 84.2773 80.7914 7.01802 176.095 7.01802V5.00562C79.68 5.00562 1.51978 83.1658 1.51978 179.581H3.53218ZM176.095 352.145C80.7914 352.145 3.53218 274.886 3.53218 179.581H1.51978C1.51978 275.996 79.68 354.157 176.095 354.157V352.145ZM348.659 179.581C348.659 274.886 271.4 352.145 176.095 352.145V354.157C272.511 354.157 350.671 275.996 350.671 179.581H348.659ZM313.671 75.3972C335.629 104.348 348.659 140.441 348.659 179.581H350.671C350.671 139.987 337.489 103.469 315.274 74.1811L313.671 75.3972ZM240.995 28.1482C240.995 22.4343 238.329 16.3107 232.573 14.344L231.923 16.2483C236.543 17.8269 238.983 22.898 238.983 28.1482H240.995ZM276.212 65.3776C283.14 65.3776 290.516 65.2419 297.208 66.4542C303.88 67.663 309.72 70.1882 313.671 75.3972L315.274 74.1811C310.9 68.4138 304.499 65.7301 297.566 64.474C290.653 63.2217 283.061 63.3652 276.212 63.3652V65.3776Z" fill="black"/>
</g>
<path d="M276.212 54.8125C290.939 54.8125 302.877 42.8745 302.877 28.1482C302.877 13.4219 290.939 1.48389 276.212 1.48389C261.486 1.48389 249.548 13.4219 249.548 28.1482C249.548 42.8745 261.486 54.8125 276.212 54.8125Z" fill="white" stroke="black" stroke-width="1.0062"/>
</g>
</g>
<defs>
<clipPath id="clip0_1_2548">
<rect width="352.18" height="370.79" fill="white" transform="translate(0.0104675 0.980713)"/>
</clipPath>
<clipPath id="clip1_1_2548">
<rect width="352.17" height="352.17" fill="white" transform="translate(0.0104675 0.980713)"/>
</clipPath>
</defs>
</svg>
