<svg width="62" height="161" viewBox="0 0 62 161" fill="none" xmlns="http://www.w3.org/2000/svg">
<mask id="path-2-inside-1_1_2353" fill="white">
<path d="M-78.9196 70.2808C-78.9196 31.6208 -47.5795 0.280762 -8.91956 0.280762C29.7404 0.280762 61.0804 31.6208 61.0804 70.2808V90.2808C61.0804 128.941 29.7404 160.281 -8.91956 160.281C-47.5795 160.281 -78.9196 128.941 -78.9196 90.2808V70.2808Z"/>
</mask>
<path d="M36.0804 70.2808V90.2808H86.0804V70.2808H36.0804ZM-53.9196 90.2808V70.2808H-103.92V90.2808H-53.9196ZM-8.91956 135.281C-33.7724 135.281 -53.9196 115.134 -53.9196 90.2808H-103.92C-103.92 142.748 -61.3866 185.281 -8.91956 185.281V135.281ZM36.0804 90.2808C36.0804 115.134 15.9333 135.281 -8.91956 135.281V185.281C43.5475 185.281 86.0804 142.748 86.0804 90.2808H36.0804ZM-8.91956 25.2808C15.9333 25.2808 36.0804 45.4279 36.0804 70.2808H86.0804C86.0804 17.8137 43.5475 -24.7192 -8.91956 -24.7192V25.2808ZM-8.91956 -24.7192C-61.3866 -24.7192 -103.92 17.8137 -103.92 70.2808H-53.9196C-53.9196 45.4279 -33.7724 25.2808 -8.91956 25.2808V-24.7192Z" fill="white" mask="url(#path-2-inside-1_1_2353)"/>
<path d="M17.9542 79.6525H-14.255L-6.63287 72.2429C-6.05047 71.677 -6.91425 70.7764 -7.5045 71.3469L-16.2316 79.8308C-16.4862 80.0627 -16.4659 80.4813 -16.2315 80.7268L-7.50447 89.2143C-6.9171 89.7779 -6.04842 88.8941 -6.63287 88.3182L-14.2578 80.9026H17.9542C18.753 80.895 18.7941 79.6677 17.9542 79.6525Z" fill="white"/>
<path d="M-1.32449 18.543L1.46084 7.69485L3.28952 8.16437L5.0803 16.4376L10.6353 10.0504L12.4794 10.5239L9.69411 21.3721L8.14438 20.9742L10.2334 12.8381L5.1714 18.592L3.97811 18.2856L2.31026 10.8203L0.225242 18.9409L-1.32449 18.543Z" fill="black"/>
<path d="M16.1766 24.9468C15.2326 24.4278 14.5163 23.7601 14.0278 22.9438C13.5444 22.1181 13.3052 21.2137 13.3102 20.2305C13.3296 19.243 13.6168 18.2445 14.1718 17.235C14.7217 16.2349 15.4057 15.4667 16.2238 14.9306C17.0565 14.3902 17.9509 14.1028 18.907 14.0685C19.8631 14.0343 20.8132 14.2766 21.7573 14.7956C22.7201 15.3249 23.4431 16.0024 23.9265 16.828C24.4192 17.6588 24.6511 18.5654 24.6224 19.5477C24.6081 20.5258 24.326 21.5149 23.7761 22.5151C23.2212 23.5246 22.532 24.3021 21.7087 24.8476C20.8999 25.3889 20.0127 25.6741 19.0473 25.7033C18.0963 25.7282 17.1394 25.4761 16.1766 24.9468ZM16.8767 23.7066C17.5497 24.0766 18.2234 24.2461 18.8977 24.2151C19.5814 24.1893 20.2155 23.9658 20.8 23.5446C21.3939 23.1286 21.9092 22.5234 22.346 21.7288C22.7828 20.9343 23.0177 20.1749 23.0508 19.4505C23.0932 18.7313 22.9395 18.0809 22.5899 17.4991C22.2547 16.9132 21.7506 16.4352 21.0776 16.0652C20.4046 15.6952 19.7262 15.5231 19.0426 15.549C18.3734 15.5706 17.7418 15.7894 17.148 16.2054C16.5541 16.6215 16.0387 17.2267 15.6019 18.0213C15.1652 18.8158 14.9302 19.5752 14.8972 20.2996C14.8642 21.0239 15.0152 21.679 15.3504 22.265C15.6949 22.8561 16.2037 23.3366 16.8767 23.7066Z" fill="black"/>
<path d="M24.4669 30.293L32.1338 22.1286L34.898 24.7244C35.5434 25.3304 35.9699 25.9358 36.1776 26.5405C36.3853 27.1452 36.4147 27.7216 36.2659 28.2696C36.1322 28.8171 35.8499 29.3203 35.4191 29.779C35.0102 30.2145 34.5294 30.5239 33.9768 30.7073C33.4314 30.8829 32.8429 30.8863 32.2113 30.7175C31.5947 30.5482 30.9599 30.1569 30.3067 29.5435L28.7438 28.0758L25.6332 31.3883L24.4669 30.293ZM28.7474 34.3127L30.4041 29.0424L31.6871 30.2472L30.112 35.5941L28.7474 34.3127ZM29.5762 27.1894L31.0925 28.6133C31.6679 29.1536 32.2231 29.4116 32.7581 29.3872C33.3004 29.3551 33.7797 29.1174 34.1959 28.6742C34.6194 28.2232 34.8231 27.7414 34.8069 27.2288C34.7908 26.7161 34.4834 26.1787 33.8847 25.6165L32.3801 24.2036L29.5762 27.1894Z" fill="black"/>
<path d="M33.3539 39.8346L42.8103 33.8333L46.5911 39.7909L45.4834 40.4939L42.5599 35.8872L39.5338 37.8076L42.2001 42.009L41.1194 42.6949L38.4531 38.4935L35.319 40.4825L38.2424 45.0891L37.1347 45.7921L33.3539 39.8346Z" fill="black"/>
<path d="M42.8237 67.4893C42.7548 66.3928 42.9347 65.4303 43.3635 64.6017C43.803 63.7725 44.4401 63.1125 45.2749 62.6218C46.1211 62.1411 47.119 61.8645 48.2688 61.7922C49.4078 61.7205 50.4273 61.8701 51.327 62.241C52.2274 62.6226 52.9422 63.1975 53.4715 63.9658C54.0114 64.7334 54.3159 65.6655 54.3849 66.762C54.4666 68.0607 54.2192 69.1397 53.6427 69.999C53.0662 70.8582 52.2151 71.4301 51.0894 71.7147L50.9799 69.9741C51.6292 69.7622 52.135 69.3938 52.4974 68.8686C52.8605 68.3541 53.0156 67.6764 52.9627 66.8354C52.9158 66.0902 52.699 65.4466 52.3122 64.9044C51.926 64.373 51.3989 63.9786 50.7308 63.7214C50.0626 63.4642 49.2761 63.364 48.3712 63.421C47.4664 63.4779 46.6933 63.6762 46.052 64.0158C45.4214 64.3547 44.9478 64.812 44.6313 65.3877C44.3262 65.9733 44.197 66.6387 44.2439 67.3839C44.2968 68.2249 44.525 68.8786 44.9284 69.3448C45.3431 69.8211 45.8802 70.1186 46.5396 70.2374L46.6501 71.994C45.5296 71.8507 44.6295 71.389 43.9498 70.6088C43.2808 69.8279 42.9055 68.7881 42.8237 67.4893Z" fill="black"/>
<path d="M41.8132 80.8392C42.0151 79.781 42.4287 78.8934 43.0541 78.1766C43.69 77.4617 44.4763 76.9547 45.4129 76.6556C46.358 76.369 47.3964 76.3336 48.528 76.5494C49.6491 76.7633 50.591 77.1765 51.3538 77.7889C52.125 78.4138 52.6747 79.1756 53.0027 80.0744C53.3308 80.9731 53.3939 81.9516 53.192 83.0098C52.9862 84.089 52.5653 84.9861 51.9294 85.7009C51.2915 86.4262 50.501 86.927 49.5579 87.2031C48.6233 87.4918 47.5954 87.5292 46.4743 87.3153C45.3427 87.0995 44.3903 86.6843 43.6171 86.0699C42.8523 85.4679 42.3069 84.7123 41.9808 83.8031C41.6632 82.9064 41.6074 81.9184 41.8132 80.8392ZM43.209 81.1218C43.0651 81.8762 43.1121 82.5692 43.3499 83.201C43.5857 83.8432 43.9942 84.3772 44.5754 84.803C45.1546 85.2393 45.8895 85.5423 46.7801 85.7122C47.6707 85.8821 48.4656 85.8709 49.1647 85.6784C49.8618 85.4965 50.4329 85.1494 50.8781 84.6371C51.3318 84.1372 51.6306 83.5101 51.7746 82.7557C51.9185 82.0013 51.8725 81.303 51.6367 80.6608C51.4093 80.031 51.006 79.498 50.4269 79.0618C49.8477 78.6255 49.1128 78.3224 48.2222 78.1525C47.3316 77.9826 46.5367 77.9939 45.8376 78.1863C45.1385 78.3787 44.5621 78.7249 44.1084 79.2247C43.6527 79.735 43.3529 80.3674 43.209 81.1218Z" fill="black"/>
<path d="M39.3382 89.8565L49.4723 94.6252L48.791 96.0729L39.8007 91.8424L37.6207 96.4751L36.477 95.9369L39.3382 89.8565Z" fill="black"/>
<path d="M32.7159 101.534L41.3457 108.673L40.3258 109.906L32.67 103.572L29.4064 107.517L28.4324 106.712L32.7159 101.534Z" fill="black"/>
<path d="M24.0409 110.612L30.6241 119.673L24.9156 123.82L24.1445 122.759L28.5585 119.552L26.4518 116.652L22.4262 119.577L21.6738 118.542L25.6995 115.617L23.5176 112.614L19.1036 115.821L18.3324 114.759L24.0409 110.612Z" fill="black"/>
<path d="M9.72567 118.622C10.7472 118.217 11.7182 118.091 12.6387 118.243C13.5632 118.404 14.3877 118.806 15.1124 119.449C15.8311 120.105 16.4025 120.969 16.8266 122.04C17.2467 123.101 17.4194 124.117 17.3447 125.087C17.2601 126.061 16.9342 126.919 16.3671 127.66C15.8039 128.41 15.0115 128.988 13.99 129.392C12.7801 129.871 11.6774 129.969 10.6821 129.687C9.68679 129.404 8.87987 128.771 8.26136 127.789L9.88289 127.146C10.285 127.699 10.7918 128.066 11.4032 128.248C12.0047 128.435 12.6972 128.373 13.4807 128.062C14.1749 127.788 14.7201 127.382 15.1161 126.847C15.5023 126.316 15.7144 125.692 15.7526 124.977C15.7907 124.262 15.6429 123.484 15.3092 122.641C14.9754 121.798 14.548 121.124 14.0268 120.619C13.5096 120.124 12.9283 119.815 12.283 119.691C11.6318 119.582 10.959 119.665 10.2648 119.94C9.48127 120.25 8.93013 120.669 8.61136 121.197C8.28659 121.738 8.16959 122.341 8.26035 123.005L6.62394 123.653C6.41392 122.543 6.5749 121.544 7.10689 120.657C7.6428 119.779 8.51572 119.101 9.72567 118.622Z" fill="black"/>
<path d="M-2.15828 121.841L-0.918988 131.651L2.3669 131.236L2.53133 132.537L-5.64369 133.57L-5.80813 132.268L-2.50637 131.851L-3.74566 122.041L-2.15828 121.841Z" fill="black"/>
</svg>
