<svg width="1921" height="180" viewBox="0 0 1921 180" fill="none" xmlns="http://www.w3.org/2000/svg">
<g clip-path="url(#clip0_1_3101)">
<mask id="path-1-inside-1_1_3101" fill="white">
<path d="M-1.2695 67.2207L1917.56 0.213672L1921.47 112.142L2.63913 179.149L-1.2695 67.2207Z"/>
</mask>
<path d="M58.0494 102.803L62.4501 102.65L63.3573 128.628C63.4383 130.947 63.0812 132.931 62.286 134.582C61.4909 136.232 60.3331 137.505 58.8127 138.399C57.2923 139.293 55.4793 139.776 53.3736 139.85C51.3861 139.919 49.605 139.62 48.03 138.953C46.4547 138.273 45.1999 137.275 44.2655 135.957C43.3312 134.64 42.8316 133.052 42.7667 131.195L47.0965 131.044C47.1324 132.073 47.4182 132.963 47.9537 133.714C48.5007 134.453 49.2311 135.02 50.1451 135.414C51.059 135.809 52.0897 135.986 53.2372 135.946C54.503 135.902 55.5703 135.598 56.4389 135.035C57.3076 134.471 57.9546 133.667 58.38 132.622C58.8169 131.564 59.0091 130.284 58.9566 128.782L58.0494 102.803ZM86.0217 138.212L81.408 138.373L93.4831 101.566L98.0258 101.407L112.639 137.283L108.025 137.444L96.0971 107.231L95.8132 107.241L86.0217 138.212ZM87.2294 123.957L105.826 123.308L105.962 127.211L87.3658 127.861L87.2294 123.957ZM156.955 110.72L152.555 110.874C152.25 109.617 151.756 108.521 151.072 107.585C150.4 106.65 149.591 105.872 148.645 105.254C147.711 104.623 146.682 104.162 145.559 103.869C144.435 103.577 143.27 103.452 142.063 103.494C139.863 103.571 137.889 104.196 136.142 105.371C134.406 106.545 133.05 108.233 132.072 110.434C131.107 112.635 130.679 115.309 130.789 118.456C130.899 121.603 131.512 124.241 132.629 126.369C133.757 128.497 135.228 130.086 137.041 131.136C138.867 132.186 140.879 132.672 143.08 132.595C144.286 132.553 145.44 132.347 146.54 131.977C147.641 131.607 148.635 131.081 149.523 130.398C150.423 129.704 151.175 128.866 151.781 127.886C152.397 126.893 152.814 125.765 153.031 124.502L157.431 124.348C157.165 126.217 156.62 127.9 155.795 129.398C154.971 130.895 153.926 132.181 152.661 133.256C151.395 134.319 149.961 135.145 148.359 135.733C146.769 136.322 145.057 136.648 143.223 136.712C140.124 136.821 137.341 136.16 134.875 134.73C132.409 133.3 130.435 131.213 128.953 128.469C127.472 125.726 126.664 122.438 126.53 118.605C126.396 114.772 126.973 111.435 128.259 108.595C129.546 105.755 131.369 103.536 133.73 101.937C136.09 100.339 138.82 99.4853 141.92 99.3771C143.753 99.3131 145.484 99.5191 147.111 99.9953C148.751 100.471 150.239 101.201 151.576 102.185C152.913 103.156 154.045 104.361 154.971 105.797C155.898 107.221 156.559 108.863 156.955 110.72ZM176.932 135.038L175.663 98.6962L180.063 98.5425L180.693 116.571L181.119 116.556L196.815 97.9576L202.564 97.7568L187.876 114.686L203.833 134.098L198.51 134.284L185.285 117.832L180.921 123.101L181.333 134.884L176.932 135.038ZM221.522 133.481L220.253 97.1391L242.185 96.3732L242.322 100.277L224.79 100.889L225.219 113.169L241.615 112.596L241.751 116.5L225.355 117.073L225.786 129.423L243.602 128.801L243.738 132.705L221.522 133.481ZM260.259 99.6507L260.123 95.7468L287.379 94.795L287.515 98.6989L276.087 99.0979L277.22 131.536L272.819 131.689L271.687 99.2516L260.259 99.6507Z" fill="black"/>
<path opacity="0.3" d="M361.858 80.5527L371.823 101.422L393.876 108.385L373.007 118.35L366.043 140.403L356.078 119.534L334.025 112.57L354.895 102.606L361.858 80.5527Z" fill="black"/>
<path d="M451.95 89.0485L456.35 88.8948L457.258 114.873C457.338 117.192 456.981 119.177 456.186 120.827C455.391 122.477 454.233 123.75 452.713 124.644C451.193 125.538 449.379 126.022 447.274 126.095C445.286 126.164 443.505 125.865 441.93 125.198C440.355 124.519 439.1 123.52 438.166 122.202C437.231 120.885 436.732 119.297 436.667 117.44L440.997 117.289C441.033 118.318 441.318 119.208 441.854 119.959C442.401 120.698 443.131 121.265 444.045 121.66C444.959 122.054 445.99 122.231 447.137 122.191C448.403 122.147 449.47 121.843 450.339 121.28C451.208 120.717 451.855 119.912 452.28 118.867C452.717 117.809 452.909 116.529 452.857 115.027L451.95 89.0485ZM478.431 124.51L477.162 88.168L499.095 87.4021L499.231 91.306L481.699 91.9182L482.128 104.198L498.524 103.625L498.661 107.529L482.264 108.102L482.696 120.452L500.512 119.83L500.648 123.734L478.431 124.51ZM521.779 122.996L517.165 123.157L529.241 86.3494L533.783 86.1908L548.396 122.066L543.783 122.227L531.855 92.0145L531.571 92.0244L521.779 122.996ZM522.987 108.74L541.584 108.091L541.72 111.995L523.123 112.644L522.987 108.74ZM593.598 84.102L594.867 120.443L590.609 120.592L569.809 92.75L569.454 92.7624L570.45 121.296L566.05 121.45L564.781 85.1083L569.039 84.9596L589.913 112.87L590.267 112.858L589.269 84.2532L593.598 84.102ZM634.588 91.767C634.313 89.9763 633.4 88.6106 631.851 87.6697C630.303 86.7289 628.428 86.2969 626.228 86.3737C624.619 86.4299 623.22 86.7393 622.031 87.302C620.855 87.8642 619.945 88.6126 619.303 89.547C618.672 90.4811 618.377 91.5277 618.418 92.6871C618.451 93.6571 618.711 94.4831 619.197 95.1649C619.694 95.8345 620.317 96.3872 621.067 96.823C621.816 97.2469 622.598 97.5927 623.413 97.8604C624.227 98.1162 624.975 98.321 625.655 98.4749L629.381 99.3398C630.336 99.5551 631.401 99.8614 632.575 100.259C633.762 100.655 634.901 101.214 635.992 101.934C637.094 102.641 638.015 103.569 638.754 104.716C639.493 105.862 639.892 107.287 639.951 108.991C640.02 110.955 639.567 112.747 638.593 114.368C637.631 115.989 636.185 117.301 634.254 118.304C632.334 119.307 629.979 119.857 627.187 119.954C624.584 120.045 622.316 119.704 620.382 118.931C618.46 118.157 616.929 117.038 615.788 115.573C614.659 114.109 613.989 112.385 613.777 110.402L618.32 110.244C618.486 111.612 618.987 112.731 619.823 113.602C620.67 114.461 621.723 115.088 622.98 115.482C624.249 115.864 625.605 116.03 627.048 115.98C628.728 115.921 630.227 115.596 631.545 115.005C632.862 114.403 633.894 113.597 634.64 112.588C635.386 111.567 635.736 110.394 635.69 109.069C635.648 107.862 635.277 106.892 634.576 106.158C633.875 105.425 632.966 104.841 631.85 104.406C630.733 103.971 629.53 103.599 628.239 103.288L623.723 102.167C620.855 101.45 618.567 100.363 616.858 98.9065C615.149 97.4501 614.252 95.4975 614.166 93.0487C614.095 91.014 614.583 89.2203 615.631 87.6676C616.689 86.1028 618.139 84.8677 619.978 83.9625C621.83 83.0451 623.914 82.5459 626.233 82.4649C628.575 82.3831 630.672 82.7304 632.523 83.5067C634.374 84.2711 635.857 85.3564 636.972 86.7625C638.099 88.1681 638.724 89.7868 638.847 91.6183L634.588 91.767Z" fill="black"/>
<path opacity="0.3" d="M715.658 68.1926L725.623 89.0653L747.676 96.03L726.807 105.996L719.844 128.053L709.879 107.18L687.825 100.215L708.695 90.2492L715.658 68.1926Z" fill="black"/>
<path d="M812.029 85.5707C811.753 83.78 810.841 82.4142 809.292 81.4734C807.743 80.5325 805.868 80.1005 803.668 80.1774C802.059 80.2335 800.661 80.543 799.472 81.1056C798.295 81.6679 797.386 82.4162 796.743 83.3506C796.113 84.2847 795.818 85.3314 795.858 86.4907C795.892 87.4608 796.152 88.2867 796.637 88.9686C797.135 89.6382 797.758 90.1909 798.508 90.6266C799.257 91.0505 800.039 91.3963 800.853 91.664C801.668 91.9198 802.415 92.1247 803.096 92.2786L806.821 93.1434C807.776 93.3588 808.841 93.6651 810.016 94.0623C811.202 94.4591 812.341 95.0175 813.432 95.7374C814.535 96.4451 815.456 97.3723 816.194 98.5191C816.933 99.6659 817.332 101.091 817.392 102.795C817.46 104.758 817.008 106.551 816.034 108.172C815.072 109.793 813.625 111.105 811.694 112.108C809.775 113.11 807.419 113.661 804.628 113.758C802.025 113.849 799.757 113.508 797.823 112.734C795.901 111.96 794.369 110.841 793.228 109.377C792.099 107.912 791.429 106.189 791.218 104.206L795.761 104.047C795.927 105.416 796.428 106.535 797.264 107.406C798.111 108.265 799.163 108.891 800.421 109.286C801.689 109.668 803.045 109.834 804.489 109.783C806.169 109.725 807.667 109.4 808.985 108.809C810.303 108.206 811.334 107.4 812.081 106.391C812.827 105.37 813.177 104.197 813.131 102.872C813.089 101.666 812.717 100.696 812.016 99.962C811.316 99.2284 810.407 98.6442 809.29 98.2095C808.173 97.7747 806.97 97.4022 805.68 97.0919L801.164 95.9704C798.296 95.2533 796.008 94.1665 794.299 92.7101C792.59 91.2537 791.692 89.3012 791.607 86.8524C791.536 84.8176 792.024 83.0239 793.071 81.4713C794.13 79.9064 795.579 78.6713 797.419 77.7661C799.27 76.8487 801.355 76.3495 803.674 76.2685C806.016 76.1867 808.113 76.534 809.964 77.3103C811.815 78.0748 813.298 79.16 814.413 80.5661C815.54 81.9718 816.165 83.5904 816.288 85.422L812.029 85.5707ZM836.965 111.989L835.696 75.6478L840.096 75.4941L840.661 91.6774L860.039 91.0007L859.474 74.8174L863.874 74.6637L865.143 111.005L860.743 111.159L860.175 94.9046L840.798 95.5813L841.365 111.836L836.965 111.989ZM889.078 73.7836L890.347 110.125L885.946 110.279L884.677 73.9373L889.078 73.7836ZM911.164 109.398L909.894 73.0567L922.174 72.6279C925.013 72.5287 927.36 72.9324 929.216 73.8388C931.071 74.7334 932.466 76.0053 933.4 77.6546C934.334 79.3039 934.839 81.1992 934.913 83.3404C934.988 85.4816 934.617 87.3956 933.799 89.0823C932.982 90.7691 931.684 92.1173 929.907 93.1269C928.13 94.1246 925.834 94.6727 923.018 94.771L913.081 95.118L912.942 91.1432L922.737 90.8011C924.678 90.7333 926.229 90.3949 927.392 89.7858C928.567 89.1762 929.403 88.3416 929.899 87.282C930.406 86.2101 930.635 84.9466 930.584 83.4916C930.533 82.0365 930.216 80.7743 929.634 79.7049C929.052 78.6356 928.153 77.826 926.938 77.2762C925.722 76.7146 924.132 76.4681 922.168 76.5367L914.431 76.8069L915.564 109.244L911.164 109.398ZM927.699 92.4755L937.213 108.489L932.102 108.667L922.731 92.649L927.699 92.4755ZM951.999 75.495L951.863 71.5911L979.119 70.6393L979.255 74.5432L967.827 74.9422L968.96 107.38L964.559 107.534L963.427 75.0959L951.999 75.495ZM1018.09 78.3747C1017.82 76.584 1016.91 75.2182 1015.36 74.2774C1013.81 73.3365 1011.93 72.9045 1009.73 72.9814C1008.13 73.0376 1006.73 73.347 1005.54 73.9096C1004.36 74.4719 1003.45 75.2202 1002.81 76.1547C1002.18 77.0887 1001.88 78.1354 1001.92 79.2947C1001.96 80.2648 1002.22 81.0907 1002.7 81.7726C1003.2 82.4422 1003.82 82.9949 1004.57 83.4306C1005.32 83.8546 1006.1 84.2003 1006.92 84.468C1007.73 84.7238 1008.48 84.9287 1009.16 85.0826L1012.89 85.9474C1013.84 86.1628 1014.91 86.4691 1016.08 86.8663C1017.27 87.2631 1018.41 87.8215 1019.5 88.5414C1020.6 89.2491 1021.52 90.1764 1022.26 91.3232C1023 92.4699 1023.4 93.8951 1023.46 95.5986C1023.53 97.5624 1023.07 99.3548 1022.1 100.976C1021.14 102.597 1019.69 103.909 1017.76 104.912C1015.84 105.915 1013.49 106.465 1010.69 106.562C1008.09 106.653 1005.82 106.312 1003.89 105.538C1001.97 104.764 1000.43 103.645 999.294 102.181C998.165 100.716 997.495 98.9925 997.284 97.0101L1001.83 96.8514C1001.99 98.2196 1002.49 99.3391 1003.33 100.21C1004.18 101.069 1005.23 101.695 1006.49 102.09C1007.76 102.472 1009.11 102.638 1010.55 102.587C1012.23 102.529 1013.73 102.204 1015.05 101.613C1016.37 101.01 1017.4 100.204 1018.15 99.1952C1018.89 98.1742 1019.24 97.0013 1019.2 95.6763C1019.15 94.4697 1018.78 93.4996 1018.08 92.766C1017.38 92.0324 1016.47 91.4483 1015.36 91.0135C1014.24 90.5787 1013.04 90.2062 1011.75 89.8959L1007.23 88.7744C1004.36 88.0573 1002.07 86.9706 1000.36 85.5142C998.655 84.0578 997.758 82.1052 997.673 79.6564C997.601 77.6216 998.09 75.8279 999.137 74.2753C1000.2 72.7104 1001.64 71.4754 1003.48 70.5702C1005.34 69.6527 1007.42 69.1535 1009.74 69.0726C1012.08 68.9908 1014.18 69.338 1016.03 70.1143C1017.88 70.8788 1019.36 71.9641 1020.48 73.3701C1021.61 74.7758 1022.23 76.3944 1022.35 78.226L1018.09 78.3747Z" fill="black"/>
<path opacity="0.3" d="M1095.03 54.9525L1105 75.8217L1127.06 82.785L1106.18 92.75L1099.22 114.803L1089.25 93.9339L1067.2 86.9705L1088.07 77.0056L1095.03 54.9525Z" fill="black"/>
<path d="M1191.41 72.3207C1191.13 70.53 1190.22 69.1642 1188.67 68.2234C1187.12 67.2825 1185.25 66.8505 1183.05 66.9274C1181.44 66.9835 1180.04 67.293 1178.85 67.8556C1177.68 68.4179 1176.77 69.1662 1176.12 70.1006C1175.49 71.0347 1175.2 72.0814 1175.24 73.2407C1175.27 74.2108 1175.53 75.0367 1176.02 75.7186C1176.51 76.3882 1177.14 76.9409 1177.89 77.3766C1178.64 77.8005 1179.42 78.1463 1180.23 78.414C1181.05 78.6698 1181.8 78.8747 1182.48 79.0286L1186.2 79.8934C1187.16 80.1088 1188.22 80.4151 1189.4 80.8123C1190.58 81.2091 1191.72 81.7675 1192.81 82.4874C1193.91 83.1951 1194.84 84.1223 1195.57 85.2691C1196.31 86.4159 1196.71 87.8411 1196.77 89.5446C1196.84 91.5083 1196.39 93.3008 1195.41 94.9219C1194.45 96.5427 1193.01 97.8546 1191.07 98.8578C1189.15 99.8605 1186.8 100.411 1184.01 100.508C1181.4 100.599 1179.14 100.258 1177.2 99.4843C1175.28 98.7105 1173.75 97.5914 1172.61 96.127C1171.48 94.6622 1170.81 92.9385 1170.6 90.9561L1175.14 90.7974C1175.31 92.1656 1175.81 93.2851 1176.64 94.1561C1177.49 95.0148 1178.54 95.6414 1179.8 96.0357C1181.07 96.4178 1182.43 96.5836 1183.87 96.5332C1185.55 96.4746 1187.05 96.1498 1188.37 95.559C1189.68 94.9563 1190.71 94.1504 1191.46 93.1412C1192.21 92.1202 1192.56 90.9473 1192.51 89.6223C1192.47 88.4157 1192.1 87.4456 1191.4 86.712C1190.7 85.9784 1189.79 85.3942 1188.67 84.9595C1187.55 84.5247 1186.35 84.1522 1185.06 83.8419L1180.54 82.7204C1177.68 82.0033 1175.39 80.9165 1173.68 79.4601C1171.97 78.0037 1171.07 76.0512 1170.99 73.6024C1170.92 71.5676 1171.4 69.7739 1172.45 68.2213C1173.51 66.6564 1174.96 65.4213 1176.8 64.5161C1178.65 63.5987 1180.73 63.0995 1183.05 63.0185C1185.4 62.9367 1187.49 63.284 1189.34 64.0603C1191.19 64.8248 1192.68 65.91 1193.79 67.3161C1194.92 68.7218 1195.54 70.3404 1195.67 72.172L1191.41 72.3207ZM1216.34 98.7393L1215.08 62.3978L1219.48 62.2441L1220.04 78.4274L1239.42 77.7507L1238.85 61.5674L1243.25 61.4137L1244.52 97.7552L1240.12 97.9089L1239.56 81.6546L1220.18 82.3313L1220.75 98.5856L1216.34 98.7393ZM1295.35 77.7872C1295.49 81.6201 1294.91 84.9567 1293.63 87.7969C1292.34 90.6371 1290.52 92.8564 1288.16 94.4549C1285.79 96.0534 1283.06 96.9068 1279.97 97.015C1276.87 97.1233 1274.08 96.4624 1271.62 95.0324C1269.15 93.6025 1267.18 91.5158 1265.7 88.7722C1264.21 86.0287 1263.41 82.7405 1263.27 78.9076C1263.14 75.0747 1263.71 71.7382 1265 68.898C1266.29 66.0578 1268.11 63.8384 1270.47 62.2399C1272.83 60.6414 1275.56 59.7881 1278.66 59.6798C1281.76 59.5716 1284.54 60.2324 1287.01 61.6624C1289.48 63.0924 1291.45 65.1791 1292.93 67.9226C1294.41 70.6661 1295.22 73.9544 1295.35 77.7872ZM1291.1 77.936C1290.99 74.7892 1290.37 72.1518 1289.24 70.0237C1288.12 67.8952 1286.65 66.3061 1284.83 65.2564C1283.01 64.2064 1281.01 63.7198 1278.81 63.7966C1276.61 63.8735 1274.63 64.4991 1272.88 65.6735C1271.15 66.8475 1269.79 68.5353 1268.81 70.7369C1267.85 72.9381 1267.42 75.6121 1267.53 78.7589C1267.64 81.9056 1268.25 84.5433 1269.37 86.6718C1270.5 88.7999 1271.97 90.389 1273.78 91.439C1275.61 92.4887 1277.62 92.9751 1279.82 92.8982C1282.02 92.8214 1283.99 92.196 1285.73 91.022C1287.47 89.8476 1288.83 88.1598 1289.8 85.9586C1290.77 83.7569 1291.21 81.0827 1291.1 77.936ZM1315.38 95.2808L1314.11 58.9393L1326.39 58.5105C1329.23 58.4114 1331.58 58.815 1333.43 59.7214C1335.29 60.616 1336.68 61.888 1337.62 63.5373C1338.55 65.1865 1339.06 67.0818 1339.13 69.223C1339.21 71.3642 1338.84 73.2782 1338.02 74.9649C1337.2 76.6517 1335.9 77.9999 1334.13 79.0095C1332.35 80.0073 1330.05 80.5553 1327.24 80.6536L1317.3 81.0006L1317.16 77.0258L1326.96 76.6837C1328.9 76.616 1330.45 76.2775 1331.61 75.6684C1332.79 75.0588 1333.62 74.2242 1334.12 73.1646C1334.62 72.0927 1334.85 70.8293 1334.8 69.3742C1334.75 67.9191 1334.43 66.6569 1333.85 65.5875C1333.27 64.5182 1332.37 63.7086 1331.16 63.1589C1329.94 62.5973 1328.35 62.3508 1326.39 62.4193L1318.65 62.6895L1319.78 95.1271L1315.38 95.2808ZM1331.92 78.3582L1341.43 94.3711L1336.32 94.5496L1326.95 78.5317L1331.92 78.3582ZM1356.22 61.3776L1356.08 57.4737L1383.34 56.5219L1383.47 60.4258L1372.05 60.8249L1373.18 93.2625L1368.78 93.4162L1367.64 60.9786L1356.22 61.3776ZM1422.31 64.2573C1422.04 62.4666 1421.13 61.1008 1419.58 60.16C1418.03 59.2192 1416.15 58.7872 1413.95 58.864C1412.34 58.9202 1410.94 59.2296 1409.76 59.7923C1408.58 60.3545 1407.67 61.1028 1407.03 62.0373C1406.4 62.9713 1406.1 64.018 1406.14 65.1773C1406.18 66.1474 1406.44 66.9734 1406.92 67.6552C1407.42 68.3248 1408.04 68.8775 1408.79 69.3133C1409.54 69.7372 1410.32 70.083 1411.14 70.3506C1411.95 70.6065 1412.7 70.8113 1413.38 70.9652L1417.11 71.83C1418.06 72.0454 1419.13 72.3517 1420.3 72.7489C1421.49 73.1458 1422.63 73.7041 1423.72 74.4241C1424.82 75.1317 1425.74 76.059 1426.48 77.2058C1427.22 78.3526 1427.62 79.7777 1427.68 81.4812C1427.74 83.445 1427.29 85.2374 1426.32 86.8586C1425.36 88.4793 1423.91 89.7913 1421.98 90.7944C1420.06 91.7971 1417.7 92.3472 1414.91 92.4447C1412.31 92.5356 1410.04 92.1944 1408.11 91.4209C1406.18 90.6471 1404.65 89.528 1403.51 88.0636C1402.38 86.5988 1401.71 84.8752 1401.5 82.8927L1406.04 82.7341C1406.21 84.1022 1406.71 85.2218 1407.55 86.0927C1408.39 86.9515 1409.45 87.578 1410.7 87.9724C1411.97 88.3544 1413.33 88.5203 1414.77 88.4699C1416.45 88.4112 1417.95 88.0865 1419.27 87.4956C1420.59 86.8929 1421.62 86.087 1422.37 85.0779C1423.11 84.0569 1423.46 82.8839 1423.41 81.559C1423.37 80.3523 1423 79.3822 1422.3 78.6486C1421.6 77.9151 1420.69 77.3309 1419.57 76.8961C1418.46 76.4613 1417.25 76.0888 1415.96 75.7785L1411.45 74.6571C1408.58 73.9399 1406.29 72.8532 1404.58 71.3968C1402.87 69.9404 1401.98 67.9878 1401.89 65.539C1401.82 63.5043 1402.31 61.7106 1403.36 60.1579C1404.41 58.593 1405.86 57.358 1407.7 56.4528C1409.55 55.5353 1411.64 55.0361 1413.96 54.9552C1416.3 54.8734 1418.4 55.2206 1420.25 55.9969C1422.1 56.7614 1423.58 57.8467 1424.7 59.2528C1425.82 60.6584 1426.45 62.277 1426.57 64.1086L1422.31 64.2573Z" fill="black"/>
<path opacity="0.3" d="M1502.18 40.7327L1512.14 61.6018L1534.2 68.5652L1513.33 78.53L1506.36 100.583L1496.4 79.7138L1474.35 72.7504L1495.21 62.7856L1502.18 40.7327Z" fill="black"/>
<path d="M1576.49 54.0686L1576.36 50.2105L1603.29 49.2698L1603.43 53.128L1592.13 53.5224L1593.25 85.5799L1588.9 85.7317L1587.79 53.6742L1576.49 54.0686ZM1633.76 64.2541L1633.9 68.1122L1618.19 68.6609L1618.05 64.8028L1633.76 64.2541ZM1673 55.8257C1672.72 54.0559 1671.82 52.7062 1670.29 51.7764C1668.76 50.8465 1666.91 50.4196 1664.73 50.4955C1663.14 50.5511 1661.76 50.8569 1660.59 51.4129C1659.42 51.9686 1658.52 52.7081 1657.89 53.6316C1657.27 54.5547 1656.97 55.5892 1657.01 56.7349C1657.05 57.6936 1657.3 58.5099 1657.78 59.1837C1658.28 59.8455 1658.89 60.3917 1659.63 60.8223C1660.37 61.2413 1661.15 61.583 1661.95 61.8476C1662.76 62.1004 1663.49 62.3028 1664.17 62.4549L1667.85 63.3096C1668.79 63.5225 1669.85 63.8252 1671.01 64.2178C1672.18 64.6099 1673.3 65.1618 1674.38 65.8733C1675.47 66.5727 1676.38 67.489 1677.11 68.6224C1677.84 69.7557 1678.24 71.1642 1678.3 72.8477C1678.36 74.7885 1677.92 76.5599 1676.95 78.1621C1676 79.7638 1674.57 81.0604 1672.66 82.0518C1670.77 83.0427 1668.44 83.5864 1665.68 83.6827C1663.11 83.7726 1660.87 83.4353 1658.96 82.671C1657.06 81.9062 1655.54 80.8002 1654.42 79.353C1653.3 77.9053 1652.64 76.2019 1652.43 74.2427L1656.92 74.0859C1657.08 75.438 1657.58 76.5444 1658.4 77.4052C1659.24 78.2539 1660.28 78.8731 1661.52 79.2628C1662.78 79.6404 1664.12 79.8043 1665.54 79.7545C1667.2 79.6965 1668.69 79.3756 1669.99 78.7916C1671.29 78.196 1672.31 77.3995 1673.05 76.4022C1673.78 75.3932 1674.13 74.234 1674.08 72.9245C1674.04 71.732 1673.68 70.7733 1672.98 70.0483C1672.29 69.3234 1671.39 68.746 1670.29 68.3163C1669.19 67.8867 1668 67.5185 1666.72 67.2118L1662.26 66.1035C1659.42 65.3948 1657.16 64.3208 1655.47 62.8815C1653.78 61.4421 1652.9 59.5124 1652.81 57.0923C1652.74 55.0814 1653.22 53.3087 1654.26 51.7743C1655.31 50.2277 1656.74 49.0072 1658.56 48.1126C1660.39 47.2059 1662.45 46.7125 1664.74 46.6325C1667.05 46.5517 1669.13 46.8949 1670.95 47.6621C1672.78 48.4176 1674.25 49.4901 1675.35 50.8797C1676.46 52.2689 1677.08 53.8686 1677.2 55.6787L1673 55.8257ZM1697.78 81.9297L1696.53 46.0141L1700.87 45.8622L1701.43 61.8559L1720.58 61.1872L1720.02 45.1935L1724.37 45.0416L1725.63 80.9572L1721.28 81.1091L1720.72 65.0453L1701.57 65.714L1702.13 81.7779L1697.78 81.9297ZM1749.42 44.1669L1750.68 80.0825L1746.33 80.2344L1745.07 44.3188L1749.42 44.1669ZM1771.39 79.3592L1770.14 43.4436L1782.27 43.0198C1785.08 42.9218 1787.4 43.3207 1789.23 44.2165C1791.06 45.1007 1792.44 46.3577 1793.37 47.9877C1794.29 49.6176 1794.79 51.4906 1794.86 53.6068C1794.94 55.7229 1794.57 57.6144 1793.76 59.2814C1792.95 60.9484 1791.67 62.2808 1789.91 63.2786C1788.16 64.2646 1785.89 64.8063 1783.11 64.9034L1773.29 65.2464L1773.15 61.3181L1782.83 60.9801C1784.75 60.9131 1786.28 60.5786 1787.43 59.9766C1788.59 59.3742 1789.42 58.5494 1789.91 57.5022C1790.41 56.4429 1790.63 55.1942 1790.58 53.7562C1790.53 52.3182 1790.22 51.0707 1789.64 50.0139C1789.07 48.9571 1788.18 48.157 1786.98 47.6137C1785.78 47.0587 1784.21 46.8151 1782.27 46.8828L1774.62 47.1498L1775.74 79.2073L1771.39 79.3592ZM1787.73 62.6349L1797.13 78.4602L1792.08 78.6366L1782.82 62.8064L1787.73 62.6349ZM1811.89 45.8484L1811.75 41.9903L1838.69 41.0496L1838.82 44.9078L1827.53 45.3022L1828.65 77.3596L1824.3 77.5115L1823.18 45.454L1811.89 45.8484Z" fill="black"/>
<path opacity="0.3" d="M1910.11 26.4825L1920.08 47.3553L1942.14 54.3198L1921.26 64.2864L1914.3 86.3431L1904.33 65.4704L1882.28 58.5057L1903.15 48.5393L1910.11 26.4825Z" fill="black"/>
</g>
<path d="M-1.2346 68.2201L1917.6 1.21306L1917.53 -0.785719L-1.3044 66.2213L-1.2346 68.2201ZM1921.43 111.143L2.60423 178.15L2.67403 180.149L1921.5 113.142L1921.43 111.143Z" fill="black" mask="url(#path-1-inside-1_1_3101)"/>
<defs>
<clipPath id="clip0_1_3101">
<path d="M-1.2695 67.2207L1917.56 0.213672L1921.47 112.142L2.63913 179.149L-1.2695 67.2207Z" fill="white"/>
</clipPath>
</defs>
</svg>
