<svg width="61" height="61" viewBox="0 0 61 61" fill="none" xmlns="http://www.w3.org/2000/svg">
<rect x="0.19043" y="0.0908203" width="60" height="60" rx="30" fill="black"/>
<path d="M20.2002 31.3506H40.1807C40.5322 31.3311 40.8301 31.2041 41.0742 30.9697C41.3184 30.7354 41.4404 30.4424 41.4404 30.0908C41.4404 29.7393 41.3184 29.4463 41.0742 29.2119C40.8301 28.9775 40.5322 28.8506 40.1807 28.8311H20.2002C19.8486 28.8506 19.5508 28.9775 19.3066 29.2119C19.0625 29.4463 18.9404 29.7393 18.9404 30.0908C18.9404 30.4424 19.0625 30.7354 19.3066 30.9697C19.5508 31.2041 19.8486 31.3311 20.2002 31.3506ZM31.8018 36.7119C31.5674 36.9658 31.4502 37.2588 31.4502 37.5908C31.4502 37.9229 31.5771 38.2109 31.8311 38.4551C32.085 38.6992 32.373 38.8213 32.6953 38.8213C33.0176 38.8213 33.3057 38.7041 33.5596 38.4697L41.0596 30.9697C41.3135 30.7158 41.4404 30.4229 41.4404 30.0908C41.4404 29.7588 41.3135 29.4658 41.0596 29.2119L33.5596 21.7119C33.3057 21.4775 33.0176 21.3604 32.6953 21.3604C32.373 21.3604 32.085 21.4824 31.8311 21.7266C31.5771 21.9707 31.4502 22.2588 31.4502 22.5908C31.4502 22.9229 31.5674 23.2158 31.8018 23.4697L38.4229 30.0908L31.8018 36.7119Z" fill="white"/>
</svg>
