<svg width="141" height="141" viewBox="0 0 141 141" fill="none" xmlns="http://www.w3.org/2000/svg">
<path d="M76.9406 68.9296C77.9093 69.5233 77.9093 70.9296 76.9406 71.5233L65.9406 78.0233C64.9406 78.6171 63.6906 77.8983 63.6906 76.7108V63.7108C63.6906 62.4296 65.0343 61.8983 65.9406 62.4296L76.9406 68.9296Z" fill="#444444"/>
<path d="M79.2076 18.7097L81.993 7.86158L83.8217 8.3311L85.6124 16.6044L91.1674 10.2172L93.0116 10.6907L90.2262 21.5388L88.6765 21.1409L90.7655 13.0048L85.7035 18.7587L84.5102 18.4523L82.8424 10.987L80.7574 19.1076L79.2076 18.7097Z" fill="black"/>
<path d="M95.7862 24.8865C94.8422 24.3675 94.1259 23.6998 93.6374 22.8835C93.154 22.0579 92.9148 21.1534 92.9198 20.1702C92.9392 19.1828 93.2264 18.1843 93.7814 17.1748C94.3312 16.1746 95.0153 15.4065 95.8334 14.8703C96.6661 14.3299 97.5605 14.0426 98.5166 14.0083C99.4727 13.974 100.423 14.2164 101.367 14.7354C102.33 15.2647 103.053 15.9421 103.536 16.7678C104.029 17.5986 104.261 18.5051 104.232 19.4874C104.218 20.4655 103.936 21.4547 103.386 22.4548C102.831 23.4643 102.142 24.2418 101.318 24.7873C100.509 25.3286 99.6223 25.6139 98.6569 25.643C97.7059 25.668 96.749 25.4158 95.7862 24.8865ZM96.4863 23.6464C97.1593 24.0164 97.8329 24.1859 98.5073 24.1549C99.191 24.1291 99.8251 23.9056 100.41 23.4844C101.003 23.0684 101.519 22.4631 101.956 21.6686C102.392 20.8741 102.627 20.1146 102.66 19.3903C102.703 18.6711 102.549 18.0206 102.199 17.4389C101.864 16.8529 101.36 16.375 100.687 16.005C100.014 15.635 99.3358 15.4629 98.6522 15.4887C97.983 15.5104 97.3514 15.7292 96.7575 16.1452C96.1637 16.5612 95.6483 17.1665 95.2115 17.961C94.7748 18.7555 94.5398 19.515 94.5068 20.2393C94.4737 20.9637 94.6248 21.6188 94.96 22.2047C95.3045 22.7958 95.8133 23.2764 96.4863 23.6464Z" fill="black"/>
<path d="M103.881 30.0491L111.548 21.8846L114.312 24.4804C114.958 25.0865 115.384 25.6919 115.592 26.2966C115.799 26.9013 115.829 27.4776 115.68 28.0257C115.546 28.5732 115.264 29.0763 114.833 29.5351C114.424 29.9705 113.944 30.2799 113.391 30.4633C112.846 30.6389 112.257 30.6423 111.625 30.4735C111.009 30.3043 110.374 29.9129 109.721 29.2996L108.158 27.8319L105.047 31.1443L103.881 30.0491ZM108.162 34.0687L109.818 28.7985L111.101 30.0033L109.526 35.3502L108.162 34.0687ZM108.99 26.9455L110.507 28.3693C111.082 28.9097 111.637 29.1677 112.172 29.1433C112.715 29.1112 113.194 28.8735 113.61 28.4303C114.034 27.9793 114.237 27.4975 114.221 26.9848C114.205 26.4722 113.898 25.9348 113.299 25.3725L111.794 23.9596L108.99 26.9455Z" fill="black"/>
<path d="M112.848 39.5974L122.304 33.5961L126.085 39.5537L124.977 40.2567L122.054 35.65L119.028 37.5704L121.694 41.7718L120.613 42.4577L117.947 38.2563L114.813 40.2453L117.736 44.8519L116.629 45.5549L112.848 39.5974Z" fill="black"/>
<path d="M122.442 67.5602C122.373 66.4637 122.553 65.5012 122.982 64.6726C123.421 63.8434 124.058 63.1834 124.893 62.6927C125.739 62.212 126.737 61.9354 127.887 61.8631C129.026 61.7914 130.046 61.941 130.945 62.3119C131.846 62.6935 132.561 63.2684 133.09 64.0367C133.63 64.8043 133.934 65.7364 134.003 66.8329C134.085 68.1316 133.838 69.2106 133.261 70.0699C132.684 70.9291 131.833 71.501 130.708 71.7856L130.598 70.045C131.248 69.8331 131.753 69.4647 132.116 68.9395C132.479 68.4251 132.634 67.7473 132.581 66.9063C132.534 66.1611 132.317 65.5175 131.93 64.9753C131.544 64.4439 131.017 64.0495 130.349 63.7923C129.681 63.5351 128.894 63.4349 127.99 63.4919C127.085 63.5488 126.312 63.7471 125.67 64.0867C125.04 64.4256 124.566 64.8829 124.25 65.4586C123.945 66.0442 123.815 66.7096 123.862 67.4548C123.915 68.2958 124.143 68.9495 124.547 69.4157C124.961 69.892 125.499 70.1895 126.158 70.3083L126.268 72.0649C125.148 71.9216 124.248 71.4599 123.568 70.6797C122.899 69.8988 122.524 68.859 122.442 67.5602Z" fill="black"/>
<path d="M121.559 80.0698C121.761 79.0116 122.174 78.124 122.8 77.4072C123.435 76.6923 124.222 76.1853 125.158 75.8862C126.103 75.5996 127.142 75.5642 128.273 75.78C129.395 75.9939 130.336 76.4071 131.099 77.0195C131.87 77.6444 132.42 78.4062 132.748 79.305C133.076 80.2037 133.139 81.1822 132.937 82.2404C132.732 83.3196 132.311 84.2167 131.675 84.9315C131.037 85.6568 130.246 86.1576 129.303 86.4337C128.369 86.7224 127.341 86.7598 126.22 86.5459C125.088 86.33 124.136 85.9149 123.363 85.3005C122.598 84.6985 122.052 83.9429 121.726 83.0337C121.409 82.137 121.353 81.149 121.559 80.0698ZM122.954 80.3524C122.811 81.1068 122.858 81.7998 123.095 82.4316C123.331 83.0738 123.74 83.6078 124.321 84.0336C124.9 84.4699 125.635 84.7729 126.526 84.9428C127.416 85.1127 128.211 85.1015 128.91 84.909C129.607 84.7271 130.178 84.38 130.624 83.8677C131.077 83.3678 131.376 82.7407 131.52 81.9863C131.664 81.2319 131.618 80.5336 131.382 79.8914C131.155 79.2616 130.751 78.7286 130.172 78.2924C129.593 77.8561 128.858 77.553 127.968 77.3831C127.077 77.2132 126.282 77.2245 125.583 77.4169C124.884 77.6093 124.308 77.9554 123.854 78.4553C123.398 78.9656 123.098 79.598 122.954 80.3524Z" fill="black"/>
<path d="M118.748 90.222L128.882 94.9907L128.201 96.4384L119.211 92.2079L117.031 96.8406L115.887 96.3024L118.748 90.222Z" fill="black"/>
<path d="M112.448 101.326L121.078 108.465L120.058 109.698L112.402 103.365L109.139 107.31L108.165 106.504L112.448 101.326Z" fill="black"/>
<path d="M103.899 110.372L110.482 119.433L104.774 123.58L104.003 122.519L108.417 119.312L106.31 116.412L102.285 119.337L101.532 118.301L105.558 115.377L103.376 112.373L98.962 115.58L98.1908 114.519L103.899 110.372Z" fill="black"/>
<path d="M89.3366 118.561C90.3581 118.157 91.3291 118.031 92.2497 118.182C93.1741 118.344 93.9987 118.746 94.7234 119.389C95.4421 120.045 96.0134 120.908 96.4375 121.979C96.8577 123.041 97.0304 124.056 96.9557 125.027C96.871 126.001 96.5452 126.858 95.978 127.599C95.4148 128.35 94.6225 128.928 93.601 129.332C92.391 129.811 91.2884 129.909 90.2931 129.626C89.2977 129.344 88.4908 128.711 87.8723 127.728L89.4938 127.086C89.896 127.638 90.4027 128.006 91.0142 128.188C91.6157 128.374 92.3082 128.312 93.0916 128.002C93.7859 127.727 94.331 127.322 94.7271 126.787C95.1132 126.255 95.3254 125.632 95.3635 124.917C95.4017 124.202 95.2539 123.423 94.9201 122.58C94.5864 121.737 94.1589 121.063 93.6378 120.558C93.1205 120.063 92.5393 119.754 91.894 119.631C91.2427 119.522 90.5699 119.605 89.8757 119.88C89.0922 120.19 88.5411 120.609 88.2223 121.136C87.8975 121.678 87.7805 122.281 87.8713 122.945L86.2349 123.593C86.0249 122.483 86.1858 121.484 86.7178 120.596C87.2537 119.719 88.1267 119.04 89.3366 118.561Z" fill="black"/>
<path d="M77.7055 121.739L78.9448 131.549L82.2307 131.134L82.3952 132.435L74.2201 133.468L74.0557 132.166L77.3575 131.749L76.1182 121.939L77.7055 121.739Z" fill="black"/>
<path d="M64.6401 121.859L63.2364 132.971L61.649 132.77L63.0527 121.659L64.6401 121.859Z" fill="black"/>
<path d="M51.0178 118.141C52.0194 118.537 52.8138 119.11 53.4007 119.858C53.9837 120.617 54.3344 121.484 54.4527 122.46C54.5572 123.443 54.3974 124.469 53.9733 125.54C53.5532 126.601 52.9708 127.449 52.2263 128.084C51.468 128.724 50.6166 129.121 49.6723 129.275C48.7281 129.429 47.7551 129.308 46.7534 128.911C45.7319 128.507 44.9296 127.925 44.3466 127.167C43.7536 126.404 43.4099 125.534 43.3153 124.556C43.2069 123.583 43.3628 122.567 43.783 121.506C44.2071 120.434 44.7933 119.577 45.5418 118.932C46.2764 118.294 47.1208 117.9 48.075 117.75C49.0153 117.606 49.9963 117.736 51.0178 118.141ZM50.4787 119.459C49.7646 119.176 49.075 119.092 48.4099 119.207C47.7348 119.319 47.1337 119.62 46.6066 120.111C46.0695 120.598 45.6341 121.263 45.3004 122.106C44.9666 122.949 44.8287 123.732 44.8867 124.455C44.9348 125.174 45.1688 125.8 45.5886 126.333C45.9945 126.873 46.5546 127.284 47.2686 127.566C47.9827 127.849 48.6773 127.935 49.3523 127.823C50.0135 127.718 50.6126 127.422 51.1497 126.935C51.6867 126.448 52.1222 125.782 52.4559 124.939C52.7897 124.096 52.9276 123.314 52.8696 122.591C52.8116 121.868 52.5796 121.237 52.1736 120.698C51.7577 120.154 51.1927 119.741 50.4787 119.459Z" fill="black"/>
<path d="M43.6012 114.799L37.018 123.86L35.7235 122.92L36.1527 112.611L31.1024 119.562L29.808 118.622L36.3912 109.561L37.6856 110.501L37.2659 120.797L42.3067 113.859L43.6012 114.799Z" fill="black"/>
<path d="M24.9397 95.1211L14.8056 99.8898L11.8013 93.5054L12.9885 92.9468L15.3115 97.8835L18.5544 96.3575L16.4358 91.8551L17.5939 91.3101L19.7126 95.8125L23.0713 94.232L20.7483 89.2953L21.9354 88.7367L24.9397 95.1211Z" fill="black"/>
<path d="M20.4159 84.1324L14.2047 81.7989L9.41732 86.2467L9.07553 84.455L12.7585 81.0486L8.10715 79.3786L7.77136 77.6183L13.9168 79.9481L18.764 75.4725L19.1058 77.2642L15.366 80.7141L20.0771 82.3564L20.4159 84.1324Z" fill="black"/>
<path d="M18.5825 70.3487L7.40458 69.6455L7.64469 65.829C7.70028 64.9454 7.89519 64.2256 8.22944 63.6695C8.55304 63.1127 8.97904 62.712 9.50744 62.4674C10.0259 62.2114 10.5991 62.1032 11.2272 62.1427C11.8447 62.1815 12.4002 62.3554 12.8938 62.6644C13.3774 62.962 13.7554 63.4079 14.028 64.0022C14.2899 64.5958 14.3924 65.3451 14.3355 66.25L14.1958 68.4696L18.6829 68.7519L18.5825 70.3487ZM12.8704 68.3862L13.0061 66.2305C13.0583 65.4001 12.9145 64.7979 12.5747 64.4238C12.2248 64.0384 11.7412 63.8263 11.1237 63.7874C10.485 63.7473 9.9786 63.8971 9.60452 64.2369C9.23111 64.5661 9.01829 65.1459 8.96605 65.9763L8.83042 68.132L12.8704 68.3862Z" fill="black"/>
<path d="M20.3304 56.9333L9.6786 53.4723L10.173 51.9506L19.6227 55.021L21.2049 50.1516L22.407 50.5422L20.3304 56.9333Z" fill="black"/>
<path d="M27.3789 41.7811C26.8016 42.6907 26.0903 43.3637 25.245 43.8C24.3906 44.2305 23.4729 44.4125 22.4919 44.3458C21.5076 44.2644 20.5292 43.915 19.5565 43.2978C18.5929 42.6862 17.8692 41.9553 17.3854 41.1051C16.8984 40.2402 16.6678 39.3295 16.6936 38.3731C16.7194 37.4167 17.0209 36.4837 17.5982 35.5741C18.1869 34.6465 18.9084 33.9674 19.7628 33.5368C20.6229 33.0972 21.5422 32.9226 22.5208 33.0131C23.4961 33.0887 24.4655 33.4324 25.4292 34.0439C26.4018 34.6612 27.1345 35.3978 27.6273 36.2537C28.1167 37.0949 28.3457 37.9983 28.3142 38.9636C28.2794 39.9143 27.9676 40.8535 27.3789 41.7811ZM26.1852 41.0046C26.5967 40.3561 26.8081 39.6944 26.8196 39.0195C26.8367 38.3355 26.6535 37.6887 26.2699 37.0788C25.8919 36.46 25.3202 35.9077 24.5547 35.4219C23.7892 34.9361 23.046 34.6539 22.3252 34.5755C21.61 34.488 20.9512 34.6005 20.3486 34.9129C19.7428 35.2106 19.2341 35.6837 18.8226 36.3322C18.4111 36.9806 18.1968 37.6468 18.1796 38.3308C18.1592 39 18.3379 39.644 18.7158 40.2628C19.0937 40.8817 19.6655 41.434 20.431 41.9198C21.1965 42.4056 21.9397 42.6878 22.6605 42.7662C23.3814 42.8447 24.0447 42.7351 24.6506 42.4373C25.2621 42.1306 25.7736 41.653 26.1852 41.0046Z" fill="black"/>
<path d="M32.6865 34.5696L25.0196 26.4051L27.7838 23.8093C28.4292 23.2033 29.0602 22.8156 29.6767 22.6463C30.2933 22.477 30.8704 22.4838 31.4079 22.6668C31.946 22.8346 32.4304 23.1479 32.8612 23.6067C33.2701 24.0421 33.5487 24.5413 33.6971 25.1044C33.8381 25.6597 33.8045 26.2473 33.5964 26.8671C33.3887 27.4718 32.9583 28.0808 32.3052 28.6942L30.7423 30.1618L33.8528 33.4743L32.6865 34.5696ZM36.967 30.5499L31.8112 28.5655L33.0941 27.3607L38.3316 29.2684L36.967 30.5499ZM29.9098 29.2754L31.4261 27.8516C32.0015 27.3112 32.2938 26.7733 32.3031 26.2378C32.3051 25.6946 32.098 25.2013 31.6818 24.7581C31.2583 24.3071 30.7902 24.0736 30.2776 24.0575C29.7649 24.0414 29.2093 24.3144 28.6105 24.8767L27.1059 26.2896L29.9098 29.2754Z" fill="black"/>
<path d="M43.0515 26.0694L37.6559 16.2548L43.8391 12.8555L44.4712 14.0053L39.6901 16.6337L41.4167 19.7744L45.7772 17.3772L46.3938 18.4989L42.0333 20.8961L43.8216 24.1489L48.6027 21.5205L49.2348 22.6702L43.0515 26.0694Z" fill="black"/>
</svg>
