<svg width="84" height="435" viewBox="0 0 84 435" fill="none" xmlns="http://www.w3.org/2000/svg">
<mask id="path-1-outside-1_1_2233" maskUnits="userSpaceOnUse" x="-0.349609" y="-0.219177" width="84" height="435" fill="black">
<rect fill="white" x="-0.349609" y="-0.219177" width="84" height="435"/>
<path d="M81.9764 404.067C81.9764 409.666 80.9819 414.638 78.9929 418.985C77.0039 423.331 74.1677 426.757 70.4844 429.261C66.8011 431.692 62.4179 432.945 57.3349 433.018V418.985C59.9132 418.911 62.2337 418.322 64.2964 417.217C66.2854 416.038 67.8692 414.344 69.0479 412.134C70.2266 409.924 70.8159 407.235 70.8159 404.067C70.8159 401.489 70.4476 399.242 69.7109 397.327C68.9742 395.338 67.8324 393.754 66.2854 392.575C64.7384 391.397 62.7862 390.807 60.4289 390.807C58.0716 390.807 56.0826 391.397 54.4619 392.575C52.8412 393.754 51.4784 395.338 50.3734 397.327C49.2684 399.316 48.3107 401.563 47.5004 404.067C46.6164 406.498 45.7324 409.04 44.8484 411.692C42.6384 418.101 39.8391 422.926 36.4504 426.167C33.0617 429.409 28.7154 431.029 23.4114 431.029C19.0651 431.029 15.3081 429.961 12.1404 427.825C8.89905 425.615 6.39439 422.594 4.62639 418.764C2.85839 414.859 1.97439 410.366 1.97439 405.283C1.97439 400.126 2.89522 395.632 4.73689 391.802C6.57855 387.971 9.15688 384.951 12.4719 382.741C15.7132 380.457 19.6176 379.278 24.1849 379.205V393.349C21.9749 393.349 20.0227 393.864 18.3284 394.896C16.6341 395.927 15.3081 397.364 14.3504 399.205C13.3927 400.973 12.9139 403.183 12.9139 405.835C12.9139 407.972 13.2454 409.924 13.9084 411.692C14.4977 413.386 15.5291 414.749 17.0024 415.78C18.4021 416.812 20.2069 417.327 22.4169 417.327C24.3322 417.327 25.9897 416.885 27.3894 416.001C28.7154 415.117 29.8941 413.865 30.9254 412.244C31.8831 410.55 32.8407 408.524 33.7984 406.167C34.6824 403.736 35.6401 401.047 36.6714 398.1C37.9974 394.27 39.5812 390.77 41.4229 387.603C43.1909 384.435 45.4746 381.93 48.2739 380.089C51.0732 378.173 54.7566 377.216 59.3239 377.216C63.3019 377.216 67.0221 378.247 70.4844 380.31C73.9467 382.299 76.7461 385.282 78.8824 389.26C80.9451 393.238 81.9764 398.174 81.9764 404.067ZM81.9764 340.012C81.9764 345.611 80.8714 350.694 78.6614 355.261C76.4514 359.828 73.0627 363.438 68.4954 366.09C63.9281 368.742 58.1821 370.068 51.2574 370.068H3.30039V356.808H51.3679C55.5669 356.808 59.0292 356.108 61.7549 354.708C64.4806 353.309 66.5432 351.357 67.9429 348.852C69.2689 346.274 69.9319 343.253 69.9319 339.791C69.9319 336.255 69.2689 333.235 67.9429 330.73C66.5432 328.152 64.4806 326.199 61.7549 324.873C59.0292 323.474 55.5669 322.774 51.3679 322.774H3.30039V309.514H51.2574C58.1821 309.514 63.9281 310.877 68.4954 313.602C73.0627 316.328 76.4514 320.011 78.6614 324.652C80.8714 329.293 81.9764 334.413 81.9764 340.012ZM80.6504 300.129H3.30039L3.30039 282.228L56.6719 259.355V258.913L3.30039 236.371L3.30039 218.47H80.6504V231.73H23.9639V232.172L69.6004 252.062V266.648L23.9639 286.427V286.869H80.6504V300.129ZM80.6504 208.513H3.30039V190.612L56.6719 167.739V167.297L3.30039 144.755V126.854H80.6504V140.114H23.9639V140.556L69.6004 160.446V175.032L23.9639 194.811V195.253H80.6504V208.513ZM80.6504 116.898H3.30039L3.30039 66.9517H14.0189V103.638H36.2294V70.2667H46.7269L46.7269 103.638H69.9319L69.9319 66.9517H80.6504L80.6504 116.898ZM80.6504 58.6262H3.30039V30.8907C3.30039 24.7027 4.36855 19.6197 6.50489 15.6417C8.56756 11.6637 11.3669 8.71702 14.9029 6.80169C18.3652 4.81269 22.3064 3.81819 26.7264 3.81819C30.8517 3.81819 34.6824 4.77586 38.2184 6.69119C41.7544 8.60652 44.5906 11.59 46.7269 15.6417C48.8632 19.6197 49.9314 24.7764 49.9314 31.1117V45.3662H80.6504V58.6262ZM80.6504 18.2937L46.5059 34.5372V20.0617L80.6504 3.04469V18.2937ZM40.0969 45.3662V31.6642C40.0969 26.8022 38.9182 23.2294 36.5609 20.9457C34.1299 18.5884 30.9622 17.4097 27.0579 17.4097C23.2272 17.4097 20.1701 18.5515 17.8864 20.8352C15.5291 23.0452 14.3504 26.6917 14.3504 31.7747V45.3662H40.0969Z"/>
</mask>
<path d="M81.9764 404.067C81.9764 409.666 80.9819 414.638 78.9929 418.985C77.0039 423.331 74.1677 426.757 70.4844 429.261C66.8011 431.692 62.4179 432.945 57.3349 433.018V418.985C59.9132 418.911 62.2337 418.322 64.2964 417.217C66.2854 416.038 67.8692 414.344 69.0479 412.134C70.2266 409.924 70.8159 407.235 70.8159 404.067C70.8159 401.489 70.4476 399.242 69.7109 397.327C68.9742 395.338 67.8324 393.754 66.2854 392.575C64.7384 391.397 62.7862 390.807 60.4289 390.807C58.0716 390.807 56.0826 391.397 54.4619 392.575C52.8412 393.754 51.4784 395.338 50.3734 397.327C49.2684 399.316 48.3107 401.563 47.5004 404.067C46.6164 406.498 45.7324 409.04 44.8484 411.692C42.6384 418.101 39.8391 422.926 36.4504 426.167C33.0617 429.409 28.7154 431.029 23.4114 431.029C19.0651 431.029 15.3081 429.961 12.1404 427.825C8.89905 425.615 6.39439 422.594 4.62639 418.764C2.85839 414.859 1.97439 410.366 1.97439 405.283C1.97439 400.126 2.89522 395.632 4.73689 391.802C6.57855 387.971 9.15688 384.951 12.4719 382.741C15.7132 380.457 19.6176 379.278 24.1849 379.205V393.349C21.9749 393.349 20.0227 393.864 18.3284 394.896C16.6341 395.927 15.3081 397.364 14.3504 399.205C13.3927 400.973 12.9139 403.183 12.9139 405.835C12.9139 407.972 13.2454 409.924 13.9084 411.692C14.4977 413.386 15.5291 414.749 17.0024 415.78C18.4021 416.812 20.2069 417.327 22.4169 417.327C24.3322 417.327 25.9897 416.885 27.3894 416.001C28.7154 415.117 29.8941 413.865 30.9254 412.244C31.8831 410.55 32.8407 408.524 33.7984 406.167C34.6824 403.736 35.6401 401.047 36.6714 398.1C37.9974 394.27 39.5812 390.77 41.4229 387.603C43.1909 384.435 45.4746 381.93 48.2739 380.089C51.0732 378.173 54.7566 377.216 59.3239 377.216C63.3019 377.216 67.0221 378.247 70.4844 380.31C73.9467 382.299 76.7461 385.282 78.8824 389.26C80.9451 393.238 81.9764 398.174 81.9764 404.067ZM81.9764 340.012C81.9764 345.611 80.8714 350.694 78.6614 355.261C76.4514 359.828 73.0627 363.438 68.4954 366.09C63.9281 368.742 58.1821 370.068 51.2574 370.068H3.30039V356.808H51.3679C55.5669 356.808 59.0292 356.108 61.7549 354.708C64.4806 353.309 66.5432 351.357 67.9429 348.852C69.2689 346.274 69.9319 343.253 69.9319 339.791C69.9319 336.255 69.2689 333.235 67.9429 330.73C66.5432 328.152 64.4806 326.199 61.7549 324.873C59.0292 323.474 55.5669 322.774 51.3679 322.774H3.30039V309.514H51.2574C58.1821 309.514 63.9281 310.877 68.4954 313.602C73.0627 316.328 76.4514 320.011 78.6614 324.652C80.8714 329.293 81.9764 334.413 81.9764 340.012ZM80.6504 300.129H3.30039L3.30039 282.228L56.6719 259.355V258.913L3.30039 236.371L3.30039 218.47H80.6504V231.73H23.9639V232.172L69.6004 252.062V266.648L23.9639 286.427V286.869H80.6504V300.129ZM80.6504 208.513H3.30039V190.612L56.6719 167.739V167.297L3.30039 144.755V126.854H80.6504V140.114H23.9639V140.556L69.6004 160.446V175.032L23.9639 194.811V195.253H80.6504V208.513ZM80.6504 116.898H3.30039L3.30039 66.9517H14.0189V103.638H36.2294V70.2667H46.7269L46.7269 103.638H69.9319L69.9319 66.9517H80.6504L80.6504 116.898ZM80.6504 58.6262H3.30039V30.8907C3.30039 24.7027 4.36855 19.6197 6.50489 15.6417C8.56756 11.6637 11.3669 8.71702 14.9029 6.80169C18.3652 4.81269 22.3064 3.81819 26.7264 3.81819C30.8517 3.81819 34.6824 4.77586 38.2184 6.69119C41.7544 8.60652 44.5906 11.59 46.7269 15.6417C48.8632 19.6197 49.9314 24.7764 49.9314 31.1117V45.3662H80.6504V58.6262ZM80.6504 18.2937L46.5059 34.5372V20.0617L80.6504 3.04469V18.2937ZM40.0969 45.3662V31.6642C40.0969 26.8022 38.9182 23.2294 36.5609 20.9457C34.1299 18.5884 30.9622 17.4097 27.0579 17.4097C23.2272 17.4097 20.1701 18.5515 17.8864 20.8352C15.5291 23.0452 14.3504 26.6917 14.3504 31.7747V45.3662H40.0969Z" fill="white"/>
<path d="M78.9929 418.985L77.6289 418.361L78.9929 418.985ZM70.4844 429.261L71.3107 430.513L71.3193 430.508L71.3279 430.502L70.4844 429.261ZM57.3349 433.018H55.8349V434.54L57.3566 434.518L57.3349 433.018ZM57.3349 418.985L57.2921 417.485L55.8349 417.527V418.985H57.3349ZM64.2964 417.217L65.0047 418.539L65.0332 418.524L65.0611 418.507L64.2964 417.217ZM69.7109 397.327L68.3043 397.848L68.3075 397.857L68.3109 397.865L69.7109 397.327ZM66.2854 392.575L67.1945 391.382H67.1945L66.2854 392.575ZM54.4619 392.575L53.5796 391.362L53.5796 391.362L54.4619 392.575ZM50.3734 397.327L49.0621 396.598V396.598L50.3734 397.327ZM47.5004 404.067L48.9101 404.58L48.9193 404.555L48.9276 404.529L47.5004 404.067ZM44.8484 411.692L46.2664 412.181L46.269 412.173L46.2714 412.166L44.8484 411.692ZM36.4504 426.167L37.4872 427.251L36.4504 426.167ZM12.1404 427.825L11.2954 429.064L11.3017 429.068L12.1404 427.825ZM4.62639 418.764L3.25992 419.383L3.26445 419.392L4.62639 418.764ZM4.73689 391.802L3.38501 391.152L4.73689 391.802ZM12.4719 382.741L13.3039 383.989L13.32 383.978L13.3358 383.967L12.4719 382.741ZM24.1849 379.205H25.6849L25.6849 377.68L24.1607 377.705L24.1849 379.205ZM24.1849 393.349V394.849H25.6849V393.349H24.1849ZM18.3284 394.896L17.5485 393.615L18.3284 394.896ZM14.3504 399.205L15.6693 399.92L15.6754 399.909L15.6812 399.897L14.3504 399.205ZM13.9084 411.692L15.3251 411.199L15.3192 411.182L15.3129 411.165L13.9084 411.692ZM17.0024 415.78L17.8922 414.573L17.8775 414.562L17.8626 414.551L17.0024 415.78ZM27.3894 416.001L28.1904 417.27L28.206 417.26L28.2214 417.249L27.3894 416.001ZM30.9254 412.244L32.1909 413.05L32.2119 413.017L32.2312 412.982L30.9254 412.244ZM33.7984 406.167L35.1881 406.731L35.1986 406.706L35.2081 406.679L33.7984 406.167ZM36.6714 398.1L38.0872 398.596L38.0889 398.591L36.6714 398.1ZM41.4229 387.603L42.7197 388.357L42.7263 388.345L42.7327 388.334L41.4229 387.603ZM48.2739 380.089L49.0983 381.342L49.1097 381.334L49.1209 381.327L48.2739 380.089ZM70.4844 380.31L69.7167 381.598L69.7269 381.605L69.7372 381.61L70.4844 380.31ZM78.8824 389.26L80.214 388.57L80.209 388.56L80.2039 388.551L78.8824 389.26ZM80.4764 404.067C80.4764 409.487 79.5142 414.241 77.6289 418.361L80.3568 419.609C82.4496 415.036 83.4764 409.845 83.4764 404.067H80.4764ZM77.6289 418.361C75.7453 422.477 73.0811 425.682 69.6409 428.021L71.3279 430.502C75.2543 427.832 78.2625 424.186 80.3568 419.609L77.6289 418.361ZM69.6581 428.009C66.2484 430.26 62.1543 431.448 57.3132 431.518L57.3566 434.518C62.6815 434.441 67.3537 433.125 71.3107 430.513L69.6581 428.009ZM58.8349 433.018V418.985H55.8349V433.018H58.8349ZM57.3777 420.484C60.1645 420.405 62.7167 419.765 65.0047 418.539L63.5881 415.895C61.7508 416.879 59.662 417.418 57.2921 417.485L57.3777 420.484ZM65.0611 418.507C67.306 417.177 69.0747 415.271 70.3714 412.84L67.7244 411.428C66.6638 413.417 65.2648 414.899 63.5317 415.926L65.0611 418.507ZM70.3714 412.84C71.6926 410.362 72.3159 407.417 72.3159 404.067H69.3159C69.3159 407.053 68.7605 409.485 67.7244 411.428L70.3714 412.84ZM72.3159 404.067C72.3159 401.35 71.9282 398.913 71.1109 396.788L68.3109 397.865C68.9669 399.571 69.3159 401.628 69.3159 404.067H72.3159ZM71.1175 396.806C70.2914 394.575 68.9881 392.749 67.1945 391.382L65.3763 393.768C66.6767 394.759 67.6571 396.1 68.3043 397.848L71.1175 396.806ZM67.1945 391.382C65.3345 389.965 63.0431 389.307 60.4289 389.307V392.307C62.5293 392.307 64.1423 392.828 65.3763 393.768L67.1945 391.382ZM60.4289 389.307C57.8122 389.307 55.4997 389.966 53.5796 391.362L55.3441 393.788C56.6655 392.827 58.3309 392.307 60.4289 392.307V389.307ZM53.5796 391.362C51.7599 392.686 50.2588 394.444 49.0621 396.598L51.6846 398.055C52.698 396.231 53.9225 394.822 55.3441 393.788L53.5796 391.362ZM49.0621 396.598C47.9033 398.684 46.9089 401.023 46.0732 403.606L48.9276 404.529C49.7125 402.103 50.6335 399.947 51.6846 398.055L49.0621 396.598ZM46.0907 403.555C45.2017 405.999 44.3133 408.554 43.4254 411.217L46.2714 412.166C47.1515 409.526 48.0311 406.997 48.9101 404.58L46.0907 403.555ZM43.4303 411.203C41.2659 417.48 38.5699 422.064 35.4136 425.083L37.4872 427.251C41.1082 423.788 44.0109 418.722 46.2664 412.181L43.4303 411.203ZM35.4136 425.083C32.3413 428.022 28.3839 429.529 23.4114 429.529V432.529C29.0469 432.529 33.7822 430.795 37.4872 427.251L35.4136 425.083ZM23.4114 429.529C19.3215 429.529 15.866 428.528 12.9791 426.581L11.3017 429.068C14.7501 431.394 18.8086 432.529 23.4114 432.529V429.529ZM12.9854 426.585C9.98542 424.54 7.6514 421.739 5.98833 418.135L3.26445 419.392C5.13737 423.45 7.81268 426.69 11.2954 429.064L12.9854 426.585ZM5.99282 418.145C4.32769 414.468 3.47439 410.192 3.47439 405.283H0.47439C0.47439 410.54 1.38909 415.251 3.25996 419.383L5.99282 418.145ZM3.47439 405.283C3.47439 400.304 4.36317 396.041 6.08877 392.452L3.38501 391.152C1.42727 395.224 0.47439 399.948 0.47439 405.283H3.47439ZM6.08877 392.452C7.82199 388.847 10.2277 386.04 13.3039 383.989L11.6398 381.493C8.08604 383.862 5.33511 387.096 3.38501 391.152L6.08877 392.452ZM13.3358 383.967C16.2951 381.882 19.8956 380.774 24.2091 380.705L24.1607 377.705C19.3395 377.783 15.1313 379.032 11.608 381.515L13.3358 383.967ZM22.6849 379.205V393.349H25.6849V379.205H22.6849ZM24.1849 391.849C21.7321 391.849 19.5039 392.424 17.5485 393.615L19.1083 396.177C20.5415 395.305 22.2177 394.849 24.1849 394.849V391.849ZM17.5485 393.615C15.609 394.795 14.0975 396.44 13.0196 398.513L15.6812 399.897C16.5186 398.287 17.6591 397.059 19.1083 396.177L17.5485 393.615ZM13.0314 398.491C11.9231 400.537 11.4139 403.011 11.4139 405.835H14.4139C14.4139 403.356 14.8624 401.41 15.6693 399.92L13.0314 398.491ZM11.4139 405.835C11.4139 408.128 11.77 410.261 12.5039 412.219L15.3129 411.165C14.7208 409.586 14.4139 407.815 14.4139 405.835H11.4139ZM12.4916 412.185C13.1848 414.177 14.4113 415.798 16.1422 417.009L17.8626 414.551C16.6468 413.7 15.8106 412.595 15.3251 411.199L12.4916 412.185ZM16.1126 416.988C17.8325 418.255 19.9741 418.827 22.4169 418.827V415.827C20.4396 415.827 18.9716 415.368 17.8922 414.573L16.1126 416.988ZM22.4169 418.827C24.5703 418.827 26.5153 418.328 28.1904 417.27L26.5884 414.733C25.4642 415.443 24.0941 415.827 22.4169 415.827V418.827ZM28.2214 417.249C29.753 416.228 31.07 414.811 32.1909 413.05L29.6599 411.439C28.7181 412.919 27.6777 414.006 26.5573 414.753L28.2214 417.249ZM32.2312 412.982C33.2284 411.218 34.2131 409.131 35.1881 406.731L32.4087 405.602C31.4683 407.917 30.5377 409.882 29.6195 411.506L32.2312 412.982ZM35.2081 406.679C36.0945 404.242 37.0542 401.547 38.0872 398.596L35.2556 397.605C34.2259 400.547 33.2703 403.23 32.3887 405.654L35.2081 406.679ZM38.0889 398.591C39.3865 394.842 40.9314 391.432 42.7197 388.357L40.1261 386.849C38.231 390.109 36.6083 393.697 35.2539 397.61L38.0889 398.591ZM42.7327 388.334C44.3931 385.359 46.5167 383.04 49.0983 381.342L47.4495 378.836C44.4324 380.821 41.9886 383.511 40.1131 386.872L42.7327 388.334ZM49.1209 381.327C51.5977 379.632 54.9562 378.716 59.3239 378.716V375.716C54.5569 375.716 50.5487 376.715 47.4269 378.851L49.1209 381.327ZM59.3239 378.716C63.0279 378.716 66.4833 379.672 69.7167 381.598L71.2521 379.021C67.5608 376.822 63.5759 375.716 59.3239 375.716V378.716ZM69.7372 381.61C72.926 383.442 75.5393 386.206 77.5609 389.97L80.2039 388.551C77.9528 384.359 74.9674 381.155 71.2316 379.009L69.7372 381.61ZM77.5508 389.951C79.4735 393.659 80.4764 398.341 80.4764 404.067H83.4764C83.4764 398.007 82.4166 392.818 80.214 388.57L77.5508 389.951ZM78.6614 355.261L77.3111 354.608L78.6614 355.261ZM68.4954 366.09L67.7422 364.793L68.4954 366.09ZM3.30038 370.068H1.80038V371.568H3.30038V370.068ZM3.30038 356.808V355.308H1.80038V356.808H3.30038ZM61.7549 354.708L62.4401 356.043L61.7549 354.708ZM67.9429 348.852L69.2523 349.584L69.265 349.561L69.2768 349.538L67.9429 348.852ZM67.9429 330.73L69.2686 330.028L69.2649 330.021L69.2612 330.014L67.9429 330.73ZM61.7549 324.873L61.0697 326.208L61.0841 326.215L61.0987 326.222L61.7549 324.873ZM3.30038 322.774H1.80038V324.274H3.30038V322.774ZM3.30038 309.514V308.014H1.80038V309.514H3.30038ZM68.4954 313.602L67.7267 314.89H67.7267L68.4954 313.602ZM78.6614 324.652L80.0157 324.007L78.6614 324.652ZM80.4764 340.012C80.4764 345.408 79.4128 350.264 77.3111 354.608L80.0116 355.914C82.33 351.123 83.4764 345.813 83.4764 340.012H80.4764ZM77.3111 354.608C75.237 358.894 72.062 362.284 67.7422 364.793L69.2486 367.387C74.0635 364.591 77.6658 360.762 80.0116 355.914L77.3111 354.608ZM67.7422 364.793C63.4642 367.277 57.9976 368.568 51.2574 368.568V371.568C58.3665 371.568 64.392 370.207 69.2486 367.387L67.7422 364.793ZM51.2574 368.568H3.30038V371.568H51.2574V368.568ZM4.80038 370.068V356.808H1.80038V370.068H4.80038ZM3.30038 358.308H51.3679V355.308H3.30038V358.308ZM51.3679 358.308C55.7215 358.308 59.4387 357.584 62.4401 356.043L61.0697 353.374C58.6197 354.632 55.4123 355.308 51.3679 355.308V358.308ZM62.4401 356.043C65.4099 354.518 67.6985 352.364 69.2523 349.584L66.6335 348.12C65.3879 350.349 63.5512 352.1 61.0697 353.374L62.4401 356.043ZM69.2768 349.538C70.7312 346.71 71.4319 343.446 71.4319 339.791H68.4319C68.4319 343.061 67.8066 345.837 66.609 348.166L69.2768 349.538ZM71.4319 339.791C71.4319 336.07 70.734 332.796 69.2686 330.028L66.6172 331.432C67.8038 333.673 68.4319 336.44 68.4319 339.791H71.4319ZM69.2612 330.014C67.707 327.151 65.4081 324.983 62.4111 323.524L61.0987 326.222C63.553 327.416 65.3794 329.152 66.6246 331.445L69.2612 330.014ZM62.4401 323.539C59.4387 321.998 55.7215 321.274 51.3679 321.274V324.274C55.4123 324.274 58.6197 324.95 61.0697 326.208L62.4401 323.539ZM51.3679 321.274H3.30038V324.274H51.3679V321.274ZM4.80038 322.774V309.514H1.80038V322.774H4.80038ZM3.30038 311.014H51.2574V308.014H3.30038V311.014ZM51.2574 311.014C57.9913 311.014 63.4519 312.339 67.7267 314.89L69.2641 312.314C64.4042 309.414 58.3728 308.014 51.2574 308.014V311.014ZM67.7267 314.89C72.049 317.47 75.2291 320.933 77.3071 325.297L80.0157 324.007C77.6737 319.089 74.0765 315.186 69.2641 312.314L67.7267 314.89ZM77.3071 325.297C79.4128 329.719 80.4764 334.616 80.4764 340.012H83.4764C83.4764 334.21 82.3299 328.867 80.0157 324.007L77.3071 325.297ZM80.6504 300.129V301.629H82.1504V300.129H80.6504ZM3.30038 300.129H1.80038V301.629H3.30038V300.129ZM3.30038 282.228L2.70951 280.849L1.80038 281.239V282.228H3.30038ZM56.6719 259.355L57.2628 260.733L58.1719 260.344V259.355H56.6719ZM56.6719 258.913H58.1719V257.918L57.2555 257.531L56.6719 258.913ZM3.30038 236.371H1.80038V237.365L2.71677 237.752L3.30038 236.371ZM3.30038 218.47V216.97H1.80038V218.47H3.30038ZM80.6504 218.47H82.1504V216.97H80.6504V218.47ZM80.6504 231.73V233.23H82.1504V231.73H80.6504ZM23.9639 231.73V230.23H22.4639V231.73H23.9639ZM23.9639 232.172H22.4639V233.154L23.3646 233.547L23.9639 232.172ZM69.6004 252.062H71.1004V251.079L70.1997 250.687L69.6004 252.062ZM69.6004 266.648L70.1969 268.024L71.1004 267.632V266.648H69.6004ZM23.9639 286.427L23.3674 285.051L22.4639 285.442V286.427H23.9639ZM23.9639 286.869H22.4639V288.369H23.9639V286.869ZM80.6504 286.869H82.1504V285.369H80.6504V286.869ZM80.6504 298.629H3.30038V301.629H80.6504V298.629ZM4.80038 300.129L4.80038 282.228H1.80038L1.80038 300.129H4.80038ZM3.89126 283.607L57.2628 260.733L56.081 257.976L2.70951 280.849L3.89126 283.607ZM58.1719 259.355V258.913H55.1719V259.355H58.1719ZM57.2555 257.531L3.884 234.989L2.71677 237.752L56.0883 260.294L57.2555 257.531ZM4.80038 236.371L4.80038 218.47H1.80038L1.80038 236.371H4.80038ZM3.30038 219.97H80.6504V216.97H3.30038V219.97ZM79.1504 218.47V231.73H82.1504V218.47H79.1504ZM80.6504 230.23H23.9639V233.23H80.6504V230.23ZM22.4639 231.73V232.172H25.4639V231.73H22.4639ZM23.3646 233.547L69.0011 253.437L70.1997 250.687L24.5632 230.797L23.3646 233.547ZM68.1004 252.062V266.648H71.1004V252.062H68.1004ZM69.0039 265.271L23.3674 285.051L24.5604 287.803L70.1969 268.024L69.0039 265.271ZM22.4639 286.427V286.869H25.4639V286.427H22.4639ZM23.9639 288.369H80.6504V285.369H23.9639V288.369ZM79.1504 286.869V300.129H82.1504V286.869H79.1504ZM80.6504 208.513V210.013H82.1504V208.513H80.6504ZM3.30038 208.513H1.80038V210.013H3.30038V208.513ZM3.30038 190.612L2.70951 189.234L1.80038 189.623V190.612H3.30038ZM56.6719 167.739L57.2628 169.118L58.1719 168.728V167.739H56.6719ZM56.6719 167.297H58.1719V166.302L57.2555 165.915L56.6719 167.297ZM3.30038 144.755H1.80038V145.75L2.71677 146.137L3.30038 144.755ZM3.30038 126.854V125.354H1.80038V126.854H3.30038ZM80.6504 126.854H82.1504V125.354H80.6504V126.854ZM80.6504 140.114V141.614H82.1504V140.114H80.6504ZM23.9639 140.114V138.614H22.4639V140.114H23.9639ZM23.9639 140.556H22.4639V141.538L23.3646 141.931L23.9639 140.556ZM69.6004 160.446H71.1004V159.463L70.1997 159.071L69.6004 160.446ZM69.6004 175.032L70.1969 176.408L71.1004 176.017V175.032H69.6004ZM23.9639 194.811L23.3674 193.435L22.4639 193.827V194.811H23.9639ZM23.9639 195.253H22.4639V196.753H23.9639V195.253ZM80.6504 195.253H82.1504V193.753H80.6504V195.253ZM80.6504 207.013H3.30038V210.013H80.6504V207.013ZM4.80038 208.513V190.612H1.80038V208.513H4.80038ZM3.89126 191.991L57.2628 169.118L56.081 166.36L2.70951 189.234L3.89126 191.991ZM58.1719 167.739V167.297H55.1719V167.739H58.1719ZM57.2555 165.915L3.884 143.373L2.71677 146.137L56.0883 168.679L57.2555 165.915ZM4.80038 144.755V126.854H1.80038V144.755H4.80038ZM3.30038 128.354H80.6504V125.354H3.30038V128.354ZM79.1504 126.854V140.114H82.1504V126.854H79.1504ZM80.6504 138.614H23.9639V141.614H80.6504V138.614ZM22.4639 140.114V140.556H25.4639V140.114H22.4639ZM23.3646 141.931L69.0011 161.821L70.1997 159.071L24.5632 139.181L23.3646 141.931ZM68.1004 160.446V175.032H71.1004V160.446H68.1004ZM69.0039 173.656L23.3674 193.435L24.5604 196.188L70.1969 176.408L69.0039 173.656ZM22.4639 194.811V195.253H25.4639V194.811H22.4639ZM23.9639 196.753H80.6504V193.753H23.9639V196.753ZM79.1504 195.253V208.513H82.1504V195.253H79.1504ZM80.6504 116.898V118.398H82.1504V116.898H80.6504ZM3.30038 116.898H1.80038V118.398H3.30038V116.898ZM3.30038 66.9517V65.4517H1.80038V66.9517H3.30038ZM14.0189 66.9517H15.5189V65.4517H14.0189V66.9517ZM14.0189 103.638H12.5189V105.138H14.0189V103.638ZM36.2294 103.638V105.138H37.7294V103.638H36.2294ZM36.2294 70.2667V68.7667H34.7294V70.2667H36.2294ZM46.7269 70.2667H48.2269V68.7667H46.7269V70.2667ZM46.7269 103.638H45.2269V105.138H46.7269V103.638ZM69.9319 103.638V105.138H71.4319V103.638H69.9319ZM69.9319 66.9517V65.4517H68.4319V66.9517H69.9319ZM80.6504 66.9517H82.1504V65.4517H80.6504V66.9517ZM80.6504 115.398H3.30038L3.30038 118.398H80.6504V115.398ZM4.80038 116.898L4.80038 66.9517H1.80038L1.80038 116.898H4.80038ZM3.30038 68.4517H14.0189V65.4517H3.30038V68.4517ZM12.5189 66.9517V103.638H15.5189V66.9517H12.5189ZM14.0189 105.138H36.2294V102.138H14.0189V105.138ZM37.7294 103.638V70.2667H34.7294V103.638H37.7294ZM36.2294 71.7667H46.7269V68.7667H36.2294V71.7667ZM45.2269 70.2667L45.2269 103.638H48.2269L48.2269 70.2667H45.2269ZM46.7269 105.138H69.9319V102.138H46.7269V105.138ZM71.4319 103.638L71.4319 66.9517H68.4319L68.4319 103.638H71.4319ZM69.9319 68.4517H80.6504V65.4517H69.9319V68.4517ZM79.1504 66.9517L79.1504 116.898H82.1504L82.1504 66.9517H79.1504ZM80.6504 58.6262V60.1262H82.1504V58.6262H80.6504ZM3.30038 58.6262H1.80038L1.80038 60.1262H3.30038L3.30038 58.6262ZM6.50489 15.6417L7.82638 16.3514L7.83152 16.3418L7.83652 16.3322L6.50489 15.6417ZM14.9029 6.8017L15.6173 8.12064L15.6338 8.11169L15.6501 8.10236L14.9029 6.8017ZM38.2184 6.69119L38.9328 5.37225L38.2184 6.69119ZM46.7269 15.6417L45.4 16.3413L45.4054 16.3514L46.7269 15.6417ZM49.9314 45.3662H48.4314V46.8662H49.9314V45.3662ZM80.6504 45.3662H82.1504V43.8662H80.6504V45.3662ZM80.6504 18.2937L81.2948 19.6482L82.1504 19.2412V18.2937H80.6504ZM46.5059 34.5372H45.0059V36.9119L47.1503 35.8917L46.5059 34.5372ZM46.5059 20.0617L45.8368 18.7192L45.0059 19.1333V20.0617H46.5059ZM80.6504 3.04468H82.1504V0.621155L79.9813 1.70218L80.6504 3.04468ZM40.0969 45.3662V46.8662H41.5969V45.3662H40.0969ZM36.5609 20.9457L35.5167 22.0226L35.5172 22.023L36.5609 20.9457ZM17.8864 20.8352L18.9123 21.9295L18.9299 21.913L18.947 21.8958L17.8864 20.8352ZM14.3504 45.3662H12.8504V46.8662H14.3504V45.3662ZM80.6504 57.1262H3.30038L3.30038 60.1262H80.6504V57.1262ZM4.80038 58.6262V30.8907H1.80038V58.6262H4.80038ZM4.80038 30.8907C4.80038 24.863 5.84256 20.0454 7.82638 16.3514L5.1834 14.932C2.89455 19.194 1.80038 24.5424 1.80038 30.8907H4.80038ZM7.83652 16.3322C9.7774 12.5891 12.375 9.87686 15.6173 8.12064L14.1885 5.48276C10.3588 7.55719 7.35771 10.7383 5.17326 14.9512L7.83652 16.3322ZM15.6501 8.10236C18.8614 6.25757 22.5399 5.31821 26.7264 5.31821V2.31821C22.0729 2.31821 17.8691 3.36783 14.1557 5.50104L15.6501 8.10236ZM26.7264 5.31821C30.6089 5.31821 34.1932 6.2168 37.504 8.01013L38.9328 5.37225C35.1716 3.33493 31.0945 2.31821 26.7264 2.31821V5.31821ZM37.504 8.01013C40.744 9.76517 43.3823 12.5145 45.4 16.3413L48.0537 14.9421C45.7989 10.6656 42.7648 7.44791 38.9328 5.37225L37.504 8.01013ZM45.4054 16.3514C47.3869 20.041 48.4314 24.9298 48.4314 31.1117H51.4314C51.4314 24.6229 50.3396 19.1984 48.0484 14.932L45.4054 16.3514ZM48.4314 31.1117V45.3662H51.4314V31.1117H48.4314ZM49.9314 46.8662H80.6504V43.8662H49.9314V46.8662ZM79.1504 45.3662V58.6262H82.1504V45.3662H79.1504ZM80.006 16.9391L45.8615 33.1826L47.1503 35.8917L81.2948 19.6482L80.006 16.9391ZM48.0059 34.5372V20.0617H45.0059V34.5372H48.0059ZM47.175 21.4042L81.3195 4.38721L79.9813 1.70218L45.8368 18.7192L47.175 21.4042ZM79.1504 3.04468V18.2937H82.1504V3.04468H79.1504ZM41.5969 45.3662V31.6642H38.5969V45.3662H41.5969ZM41.5969 31.6642C41.5969 26.5912 40.369 22.5463 37.6046 19.8683L35.5172 22.023C37.4675 23.9124 38.5969 27.0132 38.5969 31.6642H41.5969ZM37.6051 19.8688C34.8512 17.1984 31.2877 15.9097 27.0579 15.9097V18.9097C30.6367 18.9097 33.4085 19.9783 35.5167 22.0226L37.6051 19.8688ZM27.0579 15.9097C22.9089 15.9097 19.4424 17.1579 16.8257 19.7745L18.947 21.8958C20.8978 19.9451 23.5455 18.9097 27.0579 18.9097V15.9097ZM16.8605 19.7409C14.0649 22.3617 12.8504 26.5097 12.8504 31.7747H15.8504C15.8504 26.8737 16.9932 23.7287 18.9123 21.9295L16.8605 19.7409ZM12.8504 31.7747V45.3662H15.8504V31.7747H12.8504ZM14.3504 46.8662H40.0969V43.8662H14.3504V46.8662Z" fill="black" mask="url(#path-1-outside-1_1_2233)"/>
</svg>
